<svg width="150" height="150" viewBox="0 0 150 150" fill="none" xmlns="http://www.w3.org/2000/svg">
<circle opacity="0.8" cx="75" cy="75" r="75" fill="#FAFAFA"/>
<path d="M58.4011 75L53.7511 64.5H54.9511L59.3011 74.385H58.6411L63.0211 64.5H64.1461L59.4961 75H58.4011ZM66.42 75V64.5H67.53V75H66.42ZM72.6863 69.195H78.2363V70.14H72.6863V69.195ZM72.8063 74.04H79.1213V75H71.6963V64.5H78.8963V65.46H72.8063V74.04ZM84.719 75L81.179 64.5H82.319L85.634 74.385H85.064L88.484 64.5H89.504L92.879 74.385H92.339L95.684 64.5H96.749L93.209 75H92.039L88.814 65.625H89.114L85.874 75H84.719ZM52.1934 90L52.1934 79.5H53.1084L57.9084 87.69H57.4284L62.1834 79.5H63.0984L63.0984 90H62.0334L62.0334 81.165H62.2884L57.9084 88.665H57.3834L52.9734 81.165H53.2584L53.2584 90H52.1934ZM71.8596 90.09C71.0696 90.09 70.3346 89.96 69.6546 89.7C68.9846 89.43 68.3996 89.055 67.8996 88.575C67.4096 88.085 67.0246 87.52 66.7446 86.88C66.4746 86.23 66.3396 85.52 66.3396 84.75C66.3396 83.98 66.4746 83.275 66.7446 82.635C67.0246 81.985 67.4096 81.42 67.8996 80.94C68.3996 80.45 68.9846 80.075 69.6546 79.815C70.3246 79.545 71.0596 79.41 71.8596 79.41C72.6496 79.41 73.3796 79.545 74.0496 79.815C74.7196 80.075 75.2996 80.445 75.7896 80.925C76.2896 81.405 76.6746 81.97 76.9446 82.62C77.2246 83.27 77.3646 83.98 77.3646 84.75C77.3646 85.52 77.2246 86.23 76.9446 86.88C76.6746 87.53 76.2896 88.095 75.7896 88.575C75.2996 89.055 74.7196 89.43 74.0496 89.7C73.3796 89.96 72.6496 90.09 71.8596 90.09ZM71.8596 89.1C72.4896 89.1 73.0696 88.995 73.5996 88.785C74.1396 88.565 74.6046 88.26 74.9946 87.87C75.3946 87.47 75.7046 87.01 75.9246 86.49C76.1446 85.96 76.2546 85.38 76.2546 84.75C76.2546 84.12 76.1446 83.545 75.9246 83.025C75.7046 82.495 75.3946 82.035 74.9946 81.645C74.6046 81.245 74.1396 80.94 73.5996 80.73C73.0696 80.51 72.4896 80.4 71.8596 80.4C71.2296 80.4 70.6446 80.51 70.1046 80.73C69.5646 80.94 69.0946 81.245 68.6946 81.645C68.3046 82.035 67.9946 82.495 67.7646 83.025C67.5446 83.545 67.4346 84.12 67.4346 84.75C67.4346 85.37 67.5446 85.945 67.7646 86.475C67.9946 87.005 68.3046 87.47 68.6946 87.87C69.0946 88.26 69.5646 88.565 70.1046 88.785C70.6446 88.995 71.2296 89.1 71.8596 89.1ZM80.6026 90V79.5H84.5326C85.4226 79.5 86.1876 79.645 86.8276 79.935C87.4676 80.215 87.9576 80.625 88.2976 81.165C88.6476 81.695 88.8226 82.34 88.8226 83.1C88.8226 83.84 88.6476 84.48 88.2976 85.02C87.9576 85.55 87.4676 85.96 86.8276 86.25C86.1876 86.53 85.4226 86.67 84.5326 86.67H81.2176L81.7126 86.16V90H80.6026ZM87.7726 90L85.0726 86.19H86.2726L88.9876 90H87.7726ZM81.7126 86.25L81.2176 85.725H84.5026C85.5526 85.725 86.3476 85.495 86.8876 85.035C87.4376 84.575 87.7126 83.93 87.7126 83.1C87.7126 82.26 87.4376 81.61 86.8876 81.15C86.3476 80.69 85.5526 80.46 84.5026 80.46H81.2176L81.7126 79.935V86.25ZM93.1824 84.195H98.7324V85.14H93.1824V84.195ZM93.3024 89.04H99.6174V90H92.1924V79.5H99.3924V80.46H93.3024V89.04Z" fill="black"/>
</svg>
