<svg width="177" height="40" viewBox="0 0 177 40" fill="none" xmlns="http://www.w3.org/2000/svg">
<rect width="177" height="40" fill="#151515"/>
<path d="M18.89 26H24.2C28.25 26 31.004 23.444 31.004 19.7C31.004 15.956 28.25 13.4 24.2 13.4H18.89V26ZM20.69 24.434V14.966H24.092C27.206 14.966 29.204 16.874 29.204 19.7C29.204 22.526 27.206 24.434 24.092 24.434H20.69ZM35.5611 24.434V20.366H41.8791V18.836H35.5611V14.966H42.6531V13.4H33.7611V26H42.9051V24.434H35.5611ZM49.4917 26.144C52.8217 26.144 54.3697 24.488 54.3697 22.562C54.3697 17.936 46.7377 19.862 46.7377 16.784C46.7377 15.686 47.6557 14.786 49.7977 14.786C50.9137 14.786 52.1557 15.11 53.2537 15.812L53.8477 14.372C52.8037 13.652 51.2737 13.256 49.7977 13.256C46.4857 13.256 44.9737 14.912 44.9737 16.856C44.9737 21.536 52.6057 19.592 52.6057 22.67C52.6057 23.768 51.6697 24.614 49.4917 24.614C47.8717 24.614 46.2697 24.002 45.3337 23.156L44.6677 24.56C45.6757 25.496 47.5657 26.144 49.4917 26.144ZM56.9994 26H58.7994V13.4H56.9994V26ZM71.3016 23.732C70.4016 24.308 69.4116 24.542 68.3496 24.542C65.4516 24.542 63.3456 22.472 63.3456 19.7C63.3456 16.892 65.4516 14.858 68.3676 14.858C69.7896 14.858 70.9776 15.308 72.0216 16.316L73.1376 15.2C71.9856 13.922 70.2936 13.256 68.2956 13.256C64.3896 13.256 61.5456 15.974 61.5456 19.7C61.5456 23.426 64.3896 26.144 68.2596 26.144C70.0236 26.144 71.7696 25.604 73.0296 24.542V19.628H71.3016V23.732ZM85.5119 13.4V22.796L77.9519 13.4H76.4759V26H78.2759V16.604L85.8359 26H87.3119V13.4H85.5119ZM92.8834 24.434V20.366H99.2014V18.836H92.8834V14.966H99.9754V13.4H91.0834V26H100.227V24.434H92.8834ZM113.528 26L110.54 21.77C112.304 21.14 113.312 19.736 113.312 17.792C113.312 15.056 111.332 13.4 108.056 13.4H103.142V26H104.942V22.166H108.056C108.326 22.166 108.596 22.148 108.848 22.13L111.566 26H113.528ZM108.002 20.636H104.942V14.966H108.002C110.306 14.966 111.512 15.992 111.512 17.792C111.512 19.592 110.306 20.636 108.002 20.636ZM119.892 26.144C123.222 26.144 124.77 24.488 124.77 22.562C124.77 17.936 117.138 19.862 117.138 16.784C117.138 15.686 118.056 14.786 120.198 14.786C121.314 14.786 122.556 15.11 123.654 15.812L124.248 14.372C123.204 13.652 121.674 13.256 120.198 13.256C116.886 13.256 115.374 14.912 115.374 16.856C115.374 21.536 123.006 19.592 123.006 22.67C123.006 23.768 122.07 24.614 119.892 24.614C118.272 24.614 116.67 24.002 115.734 23.156L115.068 24.56C116.076 25.496 117.966 26.144 119.892 26.144Z" fill="white"/>
<path d="M161.203 20.3853C161.416 20.1725 161.416 19.8275 161.203 19.6147L157.736 16.147C157.523 15.9342 157.178 15.9342 156.965 16.147C156.752 16.3598 156.752 16.7048 156.965 16.9176L160.048 20L156.965 23.0824C156.752 23.2952 156.752 23.6402 156.965 23.853C157.178 24.0658 157.523 24.0658 157.736 23.853L161.203 20.3853ZM139 20.5449L160.818 20.5449L160.818 19.4551L139 19.4551L139 20.5449Z" fill="white"/>
</svg>
