<svg width="154" height="52" viewBox="0 0 154 52" fill="none" xmlns="http://www.w3.org/2000/svg">
<circle cx="127.264" cy="26" r="25.2357" fill="#FAFAFA" stroke="black" stroke-width="1.52857"/>
<line x1="119.985" y1="34.1266" x2="136.55" y2="17.5612" stroke="black" stroke-width="1.52857"/>
<line x1="119.138" y1="17.5465" x2="135.703" y2="34.1119" stroke="black" stroke-width="1.52857"/>
<path d="M9.196 34.22C8.02267 34.22 6.93 34.0293 5.918 33.648C4.92067 33.252 4.048 32.702 3.3 31.998C2.56667 31.2793 1.99467 30.436 1.584 29.468C1.17333 28.5 0.968 27.444 0.968 26.3C0.968 25.156 1.17333 24.1 1.584 23.132C1.99467 22.164 2.574 21.328 3.322 20.624C4.07 19.9053 4.94267 19.3553 5.94 18.974C6.93733 18.578 8.03 18.38 9.218 18.38C10.4793 18.38 11.6307 18.6 12.672 19.04C13.7133 19.4653 14.5933 20.1033 15.312 20.954L13.464 22.692C12.9067 22.0907 12.2833 21.6433 11.594 21.35C10.9047 21.042 10.1567 20.888 9.35 20.888C8.54333 20.888 7.80267 21.02 7.128 21.284C6.468 21.548 5.88867 21.922 5.39 22.406C4.906 22.89 4.52467 23.462 4.246 24.122C3.982 24.782 3.85 25.508 3.85 26.3C3.85 27.092 3.982 27.818 4.246 28.478C4.52467 29.138 4.906 29.71 5.39 30.194C5.88867 30.678 6.468 31.052 7.128 31.316C7.80267 31.58 8.54333 31.712 9.35 31.712C10.1567 31.712 10.9047 31.5653 11.594 31.272C12.2833 30.964 12.9067 30.502 13.464 29.886L15.312 31.646C14.5933 32.482 13.7133 33.12 12.672 33.56C11.6307 34 10.472 34.22 9.196 34.22ZM20.9124 34L20.9124 18.6H23.7724L23.7724 31.58H31.8244V34H20.9124ZM43.879 34.22C42.6763 34.22 41.569 34.022 40.557 33.626C39.545 33.23 38.665 32.68 37.917 31.976C37.169 31.2573 36.5897 30.4213 36.179 29.468C35.7683 28.5 35.563 27.444 35.563 26.3C35.563 25.156 35.7683 24.1073 36.179 23.154C36.5897 22.186 37.169 21.35 37.917 20.646C38.665 19.9273 39.545 19.37 40.557 18.974C41.569 18.578 42.669 18.38 43.857 18.38C45.0597 18.38 46.1597 18.578 47.157 18.974C48.169 19.37 49.049 19.9273 49.797 20.646C50.545 21.35 51.1243 22.186 51.535 23.154C51.9457 24.1073 52.151 25.156 52.151 26.3C52.151 27.444 51.9457 28.5 51.535 29.468C51.1243 30.436 50.545 31.272 49.797 31.976C49.049 32.68 48.169 33.23 47.157 33.626C46.1597 34.022 45.067 34.22 43.879 34.22ZM43.857 31.712C44.6343 31.712 45.353 31.58 46.013 31.316C46.673 31.052 47.245 30.678 47.729 30.194C48.213 29.6953 48.587 29.1233 48.851 28.478C49.1297 27.818 49.269 27.092 49.269 26.3C49.269 25.508 49.1297 24.7893 48.851 24.144C48.587 23.484 48.213 22.912 47.729 22.428C47.245 21.9293 46.673 21.548 46.013 21.284C45.353 21.02 44.6343 20.888 43.857 20.888C43.0797 20.888 42.361 21.02 41.701 21.284C41.0557 21.548 40.4837 21.9293 39.985 22.428C39.501 22.912 39.1197 23.484 38.841 24.144C38.577 24.7893 38.445 25.508 38.445 26.3C38.445 27.0773 38.577 27.796 38.841 28.456C39.1197 29.116 39.501 29.6953 39.985 30.194C40.469 30.678 41.041 31.052 41.701 31.316C42.361 31.58 43.0797 31.712 43.857 31.712ZM62.8165 34.22C61.6139 34.22 60.4625 34.0513 59.3625 33.714C58.2625 33.362 57.3899 32.9147 56.7445 32.372L57.7345 30.15C58.3505 30.634 59.1132 31.0373 60.0225 31.36C60.9319 31.6827 61.8632 31.844 62.8165 31.844C63.6232 31.844 64.2759 31.756 64.7745 31.58C65.2732 31.404 65.6399 31.1693 65.8745 30.876C66.1092 30.568 66.2265 30.2233 66.2265 29.842C66.2265 29.3727 66.0579 28.9987 65.7205 28.72C65.3832 28.4267 64.9432 28.1993 64.4005 28.038C63.8725 27.862 63.2785 27.7007 62.6185 27.554C61.9732 27.4073 61.3205 27.2387 60.6605 27.048C60.0152 26.8427 59.4212 26.586 58.8785 26.278C58.3505 25.9553 57.9179 25.53 57.5805 25.002C57.2432 24.474 57.0745 23.7993 57.0745 22.978C57.0745 22.142 57.2945 21.3793 57.7345 20.69C58.1892 19.986 58.8712 19.4287 59.7805 19.018C60.7045 18.5927 61.8705 18.38 63.2785 18.38C64.2025 18.38 65.1192 18.4973 66.0285 18.732C66.9379 18.9667 67.7299 19.304 68.4045 19.744L67.5025 21.966C66.8132 21.5553 66.1019 21.2547 65.3685 21.064C64.6352 20.8587 63.9312 20.756 63.2565 20.756C62.4645 20.756 61.8192 20.8513 61.3205 21.042C60.8365 21.2327 60.4772 21.482 60.2425 21.79C60.0225 22.098 59.9125 22.45 59.9125 22.846C59.9125 23.3153 60.0739 23.6967 60.3965 23.99C60.7339 24.2687 61.1665 24.4887 61.6945 24.65C62.2372 24.8113 62.8385 24.9727 63.4985 25.134C64.1585 25.2807 64.8112 25.4493 65.4565 25.64C66.1165 25.8307 66.7105 26.08 67.2385 26.388C67.7812 26.696 68.2139 27.114 68.5365 27.642C68.8739 28.17 69.0425 28.8373 69.0425 29.644C69.0425 30.4653 68.8152 31.228 68.3605 31.932C67.9205 32.6213 67.2385 33.1787 66.3145 33.604C65.3905 34.0147 64.2245 34.22 62.8165 34.22ZM77.3785 25.002H85.0345V27.356H77.3785V25.002ZM77.5985 31.602H86.2885V34H74.7385V18.6L85.9805 18.6V20.998H77.5985V31.602Z" fill="black"/>
</svg>
