<svg width="293" height="77" viewBox="0 0 293 77" fill="none" xmlns="http://www.w3.org/2000/svg">
<path d="M15.312 68.9102V29.4122H0.232V28.3102H31.552V29.4122H16.472V68.9102H15.312ZM33.3994 47.7402H56.0774V48.8422H33.3994V47.7402ZM33.6894 67.8082H59.5574V68.9102H32.5294V28.3102H58.6874V29.4122H33.6894V67.8082ZM57.1196 68.9102L75.9696 28.3102H77.1296L95.9796 68.9102H94.6456L76.2596 29.2382H76.8396L58.4536 68.9102H57.1196ZM63.3256 56.6722L63.9056 55.5702H89.1356L89.7156 56.6722H63.3256ZM97.2832 68.9102V28.3102H98.2692L117.583 62.0662H117.061L136.317 28.3102H137.303V68.9102H136.143V29.9922H136.607L117.641 63.1682H116.945L97.9212 29.9922H98.4432V68.9102H97.2832ZM153.314 68.9102V28.3102H167.06C170.386 28.3102 173.228 28.8515 175.586 29.9342C177.984 30.9782 179.82 32.4862 181.096 34.4582C182.372 36.4302 183.01 38.8275 183.01 41.6502C183.01 44.4342 182.372 46.8315 181.096 48.8422C179.82 50.8142 177.984 52.3415 175.586 53.4242C173.228 54.4682 170.386 54.9902 167.06 54.9902H153.952L154.474 54.4682V68.9102H153.314ZM154.474 54.3522L153.952 53.8882H167.176C171.932 53.8882 175.567 52.8248 178.08 50.6982C180.594 48.5328 181.85 45.5168 181.85 41.6502C181.85 37.7448 180.594 34.7288 178.08 32.6022C175.567 30.4755 171.932 29.4122 167.176 29.4122H153.952L154.474 28.9482V54.3522ZM177.735 68.9102L196.585 28.3102H197.745L216.595 68.9102H215.261L196.875 29.2382H197.455L179.069 68.9102H177.735ZM183.941 56.6722L184.521 55.5702H209.751L210.331 56.6722H183.941ZM234.036 69.0842C231.02 69.0842 228.236 68.5815 225.684 67.5762C223.132 66.5322 220.909 65.0822 219.014 63.2262C217.119 61.3702 215.65 59.2048 214.606 56.7302C213.562 54.2555 213.04 51.5488 213.04 48.6102C213.04 45.6715 213.562 42.9648 214.606 40.4902C215.65 38.0155 217.119 35.8502 219.014 33.9942C220.909 32.1382 223.132 30.7075 225.684 29.7022C228.236 28.6582 231.02 28.1362 234.036 28.1362C236.781 28.1362 239.353 28.5615 241.75 29.4122C244.186 30.2628 246.274 31.5582 248.014 33.2982L247.318 34.1102C245.462 32.3315 243.413 31.0748 241.17 30.3402C238.966 29.6055 236.588 29.2382 234.036 29.2382C231.213 29.2382 228.584 29.7408 226.148 30.7462C223.751 31.7128 221.643 33.0855 219.826 34.8642C218.047 36.6042 216.655 38.6535 215.65 41.0122C214.683 43.3322 214.2 45.8648 214.2 48.6102C214.2 51.3555 214.683 53.9075 215.65 56.2662C216.655 58.5862 218.047 60.6355 219.826 62.4142C221.643 64.1542 223.751 65.5268 226.148 66.5322C228.584 67.4988 231.213 67.9822 234.036 67.9822C236.588 67.9822 238.985 67.5955 241.228 66.8222C243.509 66.0488 245.539 64.7728 247.318 62.9942L248.014 63.8642C246.274 65.6042 244.186 66.9188 241.75 67.8082C239.353 68.6588 236.781 69.0842 234.036 69.0842ZM246.912 63.8642V49.0162H248.014V63.8642H246.912ZM256.158 47.7402H278.836V48.8422H256.158V47.7402ZM256.448 67.8082H282.316V68.9102H255.288V28.3102H281.446V29.4122H256.448V67.8082Z" fill="black"/>
<path d="M292.013 14.2379H161.191L181.164 1" stroke="black" stroke-width="2.3361"/>
</svg>
