<svg width="291" height="77" viewBox="0 0 291 77" fill="none" xmlns="http://www.w3.org/2000/svg">
<path d="M8.01478 69V28.4H23.3848C27.6768 28.4 31.4274 29.2893 34.6368 31.068C37.8461 32.808 40.3401 35.2053 42.1188 38.26C43.8974 41.3147 44.7868 44.7947 44.7868 48.7C44.7868 52.6053 43.8974 56.0853 42.1188 59.14C40.3401 62.1947 37.8461 64.6113 34.6368 66.39C31.4274 68.13 27.6768 69 23.3848 69H8.01478ZM9.17478 67.898H23.2688C27.4061 67.898 31.0021 67.0667 34.0568 65.404C37.1114 63.7413 39.4701 61.4793 41.1328 58.618C42.7955 55.718 43.6268 52.412 43.6268 48.7C43.6268 44.988 42.7955 41.7013 41.1328 38.84C39.4701 35.94 37.1114 33.6587 34.0568 31.996C31.0021 30.3333 27.4061 29.502 23.2688 29.502H9.17478V67.898ZM49.8428 47.83H72.5208V48.932H49.8428V47.83ZM50.1328 67.898H76.0008V69H48.9728V28.4H75.1308V29.502H50.1328V67.898ZM90.6729 69.174C87.7343 69.174 84.9503 68.6327 82.3209 67.55C79.7303 66.4673 77.7583 65.0947 76.4049 63.432L77.2169 62.678C78.4929 64.186 80.3296 65.462 82.7269 66.506C85.1629 67.55 87.7923 68.072 90.6149 68.072C93.5536 68.072 95.9509 67.666 97.8069 66.854C99.7016 66.042 101.094 64.9593 101.983 63.606C102.911 62.214 103.375 60.6867 103.375 59.024C103.375 57.0907 102.911 55.544 101.983 54.384C101.055 53.1853 99.8176 52.2573 98.2709 51.6C96.7243 50.904 95.0423 50.3433 93.2249 49.918C91.4076 49.454 89.5709 48.99 87.7149 48.526C85.8976 48.062 84.2156 47.4627 82.6689 46.728C81.1223 45.9547 79.8849 44.9107 78.9569 43.596C78.0289 42.2813 77.5649 40.5607 77.5649 38.434C77.5649 36.6553 78.0289 34.9927 78.9569 33.446C79.9236 31.8993 81.3929 30.6427 83.3649 29.676C85.3756 28.7093 87.9663 28.226 91.1369 28.226C93.3023 28.226 95.4289 28.574 97.5169 29.27C99.6436 29.9273 101.442 30.8167 102.911 31.938L102.273 32.866C100.649 31.6673 98.8509 30.778 96.8789 30.198C94.9069 29.618 93.0123 29.328 91.1949 29.328C88.3723 29.328 86.0329 29.7533 84.1769 30.604C82.3209 31.416 80.9483 32.518 80.0589 33.91C79.1696 35.2633 78.7249 36.7907 78.7249 38.492C78.7249 40.464 79.1889 42.0493 80.1169 43.248C81.0449 44.408 82.2823 45.336 83.8289 46.032C85.3756 46.6893 87.0576 47.25 88.8749 47.714C90.7309 48.1393 92.5676 48.6033 94.3849 49.106C96.2023 49.57 97.8843 50.1887 99.4309 50.962C100.978 51.6967 102.215 52.702 103.143 53.978C104.071 55.254 104.535 56.936 104.535 59.024C104.535 60.8027 104.052 62.4653 103.085 64.012C102.118 65.5587 100.61 66.8153 98.5609 67.782C96.5116 68.71 93.8823 69.174 90.6729 69.174ZM108.629 69V28.4H109.789V69H108.629ZM134.969 69.174C131.953 69.174 129.169 68.6713 126.617 67.666C124.065 66.622 121.841 65.172 119.947 63.316C118.052 61.46 116.583 59.2947 115.539 56.82C114.495 54.3453 113.973 51.6387 113.973 48.7C113.973 45.7613 114.495 43.0547 115.539 40.58C116.583 38.1053 118.052 35.94 119.947 34.084C121.841 32.228 124.065 30.7973 126.617 29.792C129.169 28.748 131.953 28.226 134.969 28.226C137.714 28.226 140.285 28.6513 142.683 29.502C145.119 30.3527 147.207 31.648 148.947 33.388L148.251 34.2C146.395 32.4213 144.345 31.1647 142.103 30.43C139.899 29.6953 137.521 29.328 134.969 29.328C132.146 29.328 129.517 29.8307 127.081 30.836C124.683 31.8027 122.576 33.1753 120.759 34.954C118.98 36.694 117.588 38.7433 116.583 41.102C115.616 43.422 115.133 45.9547 115.133 48.7C115.133 51.4453 115.616 53.9973 116.583 56.356C117.588 58.676 118.98 60.7253 120.759 62.504C122.576 64.244 124.683 65.6167 127.081 66.622C129.517 67.5887 132.146 68.072 134.969 68.072C137.521 68.072 139.918 67.6853 142.161 66.912C144.442 66.1387 146.472 64.8627 148.251 63.084L148.947 63.954C147.207 65.694 145.119 67.0087 142.683 67.898C140.285 68.7487 137.714 69.174 134.969 69.174ZM147.845 63.954V49.106H148.947V63.954H147.845ZM156.221 69V28.4H157.207L187.599 67.666H186.961V28.4H188.121V69H187.135L156.743 29.734H157.381V69H156.221ZM197.482 47.83H220.16V48.932H197.482V47.83ZM197.772 67.898H223.64V69H196.612V28.4H222.77V29.502H197.772V67.898ZM228.394 69V28.4H242.14C245.466 28.4 248.308 28.9413 250.666 30.024C253.064 31.068 254.9 32.576 256.176 34.548C257.452 36.52 258.09 38.9173 258.09 41.74C258.09 44.524 257.452 46.9213 256.176 48.932C254.9 50.904 253.064 52.4313 250.666 53.514C248.308 54.558 245.466 55.08 242.14 55.08H229.032L229.554 54.558V69H228.394ZM257.22 69L246.606 54.268H248.056L258.67 69H257.22ZM229.554 54.442L229.032 53.978H242.256C247.012 53.978 250.647 52.9147 253.16 50.788C255.674 48.6227 256.93 45.6067 256.93 41.74C256.93 37.8347 255.674 34.8187 253.16 32.692C250.647 30.5653 247.012 29.502 242.256 29.502H229.032L229.554 29.038V54.442ZM272.87 69.174C269.931 69.174 267.147 68.6327 264.518 67.55C261.927 66.4673 259.955 65.0947 258.602 63.432L259.414 62.678C260.69 64.186 262.527 65.462 264.924 66.506C267.36 67.55 269.989 68.072 272.812 68.072C275.751 68.072 278.148 67.666 280.004 66.854C281.899 66.042 283.291 64.9593 284.18 63.606C285.108 62.214 285.572 60.6867 285.572 59.024C285.572 57.0907 285.108 55.544 284.18 54.384C283.252 53.1853 282.015 52.2573 280.468 51.6C278.921 50.904 277.239 50.3433 275.422 49.918C273.605 49.454 271.768 48.99 269.912 48.526C268.095 48.062 266.413 47.4627 264.866 46.728C263.319 45.9547 262.082 44.9107 261.154 43.596C260.226 42.2813 259.762 40.5607 259.762 38.434C259.762 36.6553 260.226 34.9927 261.154 33.446C262.121 31.8993 263.59 30.6427 265.562 29.676C267.573 28.7093 270.163 28.226 273.334 28.226C275.499 28.226 277.626 28.574 279.714 29.27C281.841 29.9273 283.639 30.8167 285.108 31.938L284.47 32.866C282.846 31.6673 281.048 30.778 279.076 30.198C277.104 29.618 275.209 29.328 273.392 29.328C270.569 29.328 268.23 29.7533 266.374 30.604C264.518 31.416 263.145 32.518 262.256 33.91C261.367 35.2633 260.922 36.7907 260.922 38.492C260.922 40.464 261.386 42.0493 262.314 43.248C263.242 44.408 264.479 45.336 266.026 46.032C267.573 46.6893 269.255 47.25 271.072 47.714C272.928 48.1393 274.765 48.6033 276.582 49.106C278.399 49.57 280.081 50.1887 281.628 50.962C283.175 51.6967 284.412 52.702 285.34 53.978C286.268 55.254 286.732 56.936 286.732 59.024C286.732 60.8027 286.249 62.4653 285.282 64.012C284.315 65.5587 282.807 66.8153 280.758 67.782C278.709 68.71 276.079 69.174 272.87 69.174Z" fill="black"/>
<path d="M0.300355 14.3492H131.122L111.149 1.11133" stroke="black" stroke-width="2.3361"/>
</svg>
