<?xml version="1.0" encoding="UTF-8"?><svg id="Layer_2" xmlns="http://www.w3.org/2000/svg" viewBox="0 0 999.39 145.8"><defs><style>.cls-1{fill:none;stroke:#231f20;}</style></defs><g id="Layer_1-2"><g><path class="cls-1" d="M.5,72.9C.5,30.7,32.9,.5,76.5,.5c24.2,0,44.4,8.8,57.6,24.8l-20.8,19.2c-9.4-10.8-21.2-16.4-35.2-16.4-26.2,0-44.8,18.4-44.8,44.8s18.6,44.8,44.8,44.8c14,0,25.8-5.6,35.2-16.6l20.8,19.2c-13.2,16.2-33.4,25-57.8,25C32.9,145.3,.5,115.1,.5,72.9Z"/><path class="cls-1" d="M136.7,72.9C136.7,31.3,169.1,.5,213.3,.5s76.6,30.6,76.6,72.4-32.6,72.4-76.6,72.4-76.6-30.8-76.6-72.4Zm120.4,0c0-26.6-18.8-44.8-43.8-44.8s-43.8,18.2-43.8,44.8,18.8,44.8,43.8,44.8,43.8-18.2,43.8-44.8Z"/><path class="cls-1" d="M435.29,2.9V142.9h-26.6l-69.8-85v85h-32V2.9h26.8l69.6,85V2.9h32Z"/><path class="cls-1" d="M452.3,72.9C452.3,30.7,484.7,.5,528.29,.5c24.2,0,44.4,8.8,57.6,24.8l-20.8,19.2c-9.4-10.8-21.2-16.4-35.2-16.4-26.2,0-44.8,18.4-44.8,44.8s18.6,44.8,44.8,44.8c14,0,25.8-5.6,35.2-16.6l20.8,19.2c-13.2,16.2-33.4,25-57.8,25-43.4,0-75.8-30.2-75.8-72.4Z"/><path class="cls-1" d="M708.69,116.9v26h-108.4V2.9h105.8V28.9h-73.6v30.4h65v25.2h-65v32.4h76.2Z"/><path class="cls-1" d="M848.49,53.7c0,31.2-23.4,50.6-60.8,50.6h-28.2v38.6h-32.4V2.9h60.6c37.4,0,60.8,19.4,60.8,50.8Zm-32.8,0c0-15.4-10-24.4-29.8-24.4h-26.4v48.6h26.4c19.8,0,29.8-9,29.8-24.2Z"/><path class="cls-1" d="M889.29,29.3h-44.8V2.9h122V29.3h-44.8v113.6h-32.4V29.3Z"/><path class="cls-1" d="M960.09,124.9c0-11.6,8.6-19.2,19.4-19.2s19.4,7.6,19.4,19.2-8.6,19.6-19.4,19.6-19.4-8.2-19.4-19.6Z"/></g></g></svg>