<?xml version="1.0" encoding="UTF-8"?><svg id="Layer_2" xmlns="http://www.w3.org/2000/svg" viewBox="0 0 831.19 145.8"><defs><style>.cls-1{fill:none;stroke:#231f20;}</style></defs><g id="Layer_1-2"><g><path class="cls-1" d="M121.9,53.7c0,31.2-23.4,50.6-60.8,50.6h-28.2v38.6H.5V2.9H61.1c37.4,0,60.8,19.4,60.8,50.8Zm-32.8,0c0-15.4-10-24.4-29.8-24.4h-26.4v48.6h26.4c19.8,0,29.8-9,29.8-24.2Z"/><path class="cls-1" d="M130.7,72.9C130.7,31.3,163.1,.5,207.3,.5s76.6,30.6,76.6,72.4-32.6,72.4-76.6,72.4-76.6-30.8-76.6-72.4Zm120.4,0c0-26.6-18.8-44.8-43.8-44.8s-43.8,18.2-43.8,44.8,18.8,44.8,43.8,44.8,43.8-18.2,43.8-44.8Z"/><path class="cls-1" d="M289.9,129.1l11-24.4c11.8,8.6,29.4,14.6,46.2,14.6,19.2,0,27-6.4,27-15,0-26.2-81.4-8.2-81.4-60.2,0-23.8,19.2-43.6,59-43.6,17.6,0,35.6,4.2,48.6,12.4l-10,24.6c-13-7.4-26.4-11-38.8-11-19.2,0-26.6,7.2-26.6,16,0,25.8,81.4,8,81.4,59.4,0,23.4-19.4,43.4-59.4,43.4-22.2,0-44.6-6.6-57-16.2Z"/><path class="cls-1" d="M448.1,29.3h-44.8V2.9h122V29.3h-44.8v113.6h-32.4V29.3Z"/><path class="cls-1" d="M643.69,116.9v26h-108.4V2.9h105.8V28.9h-73.6v30.4h65v25.2h-65v32.4h76.2Z"/><path class="cls-1" d="M751.29,142.9l-27-39h-29.8v39h-32.4V2.9h60.6c37.4,0,60.8,19.4,60.8,50.8,0,21-10.6,36.4-28.8,44.2l31.4,45h-34.8Zm-30.4-113.6h-26.4v48.8h26.4c19.8,0,29.8-9.2,29.8-24.4s-10-24.4-29.8-24.4Z"/><path class="cls-1" d="M791.89,124.9c0-11.6,8.6-19.2,19.4-19.2s19.4,7.6,19.4,19.2-8.6,19.6-19.4,19.6-19.4-8.2-19.4-19.6Z"/></g></g></svg>