<svg width="150" height="150" viewBox="0 0 150 150" fill="none" xmlns="http://www.w3.org/2000/svg">
<circle opacity="0.8" cx="75" cy="75" r="75" fill="#FAFAFA"/>
<path d="M56.5293 75V64.5H60.4593C61.3493 64.5 62.1143 64.645 62.7543 64.935C63.3943 65.215 63.8843 65.625 64.2243 66.165C64.5743 66.695 64.7493 67.34 64.7493 68.1C64.7493 68.84 64.5743 69.48 64.2243 70.02C63.8843 70.55 63.3943 70.96 62.7543 71.25C62.1143 71.54 61.3493 71.685 60.4593 71.685H57.1443L57.6393 71.16V75H56.5293ZM57.6393 71.25L57.1443 70.71H60.4293C61.4793 70.71 62.2743 70.485 62.8143 70.035C63.3643 69.575 63.6393 68.93 63.6393 68.1C63.6393 67.26 63.3643 66.61 62.8143 66.15C62.2743 65.69 61.4793 65.46 60.4293 65.46H57.1443L57.6393 64.935V71.25ZM67.8995 75V64.5H69.0095V74.04H74.8895V75H67.8995ZM75.8025 75L80.6025 64.5H81.6975L86.4975 75H85.3275L80.9175 65.145H81.3675L76.9575 75H75.8025ZM77.6925 72.195L78.0225 71.295H84.1275L84.4575 72.195H77.6925ZM90.8742 75V71.1L91.1292 71.79L86.6742 64.5H87.8592L91.7742 70.905H91.1442L95.0592 64.5H96.1692L91.7142 71.79L91.9692 71.1V75H90.8742ZM53.8146 90L49.1646 79.5H50.3646L54.7146 89.385H54.0546L58.4346 79.5H59.5596L54.9096 90H53.8146ZM61.8335 90L61.8335 79.5H62.9435L62.9435 90H61.8335ZM67.1099 90V79.5H71.3849C72.5049 79.5 73.4849 79.725 74.3249 80.175C75.1749 80.615 75.8349 81.23 76.3049 82.02C76.7749 82.81 77.0099 83.72 77.0099 84.75C77.0099 85.78 76.7749 86.69 76.3049 87.48C75.8349 88.27 75.1749 88.89 74.3249 89.34C73.4849 89.78 72.5049 90 71.3849 90H67.1099ZM68.2199 89.04H71.3249C72.2549 89.04 73.0599 88.86 73.7399 88.5C74.4299 88.13 74.9649 87.625 75.3449 86.985C75.7249 86.335 75.9149 85.59 75.9149 84.75C75.9149 83.9 75.7249 83.155 75.3449 82.515C74.9649 81.875 74.4299 81.375 73.7399 81.015C73.0599 80.645 72.2549 80.46 71.3249 80.46H68.2199V89.04ZM81.2425 84.195H86.7925V85.14H81.2425V84.195ZM81.3625 89.04H87.6775V90H80.2525V79.5H87.4525V80.46H81.3625V89.04ZM95.5974 90.09C94.8074 90.09 94.0724 89.96 93.3924 89.7C92.7224 89.43 92.1374 89.055 91.6374 88.575C91.1474 88.085 90.7624 87.52 90.4824 86.88C90.2124 86.23 90.0774 85.52 90.0774 84.75C90.0774 83.98 90.2124 83.275 90.4824 82.635C90.7624 81.985 91.1474 81.42 91.6374 80.94C92.1374 80.45 92.7224 80.075 93.3924 79.815C94.0624 79.545 94.7974 79.41 95.5974 79.41C96.3874 79.41 97.1174 79.545 97.7874 79.815C98.4574 80.075 99.0374 80.445 99.5274 80.925C100.027 81.405 100.412 81.97 100.682 82.62C100.962 83.27 101.102 83.98 101.102 84.75C101.102 85.52 100.962 86.23 100.682 86.88C100.412 87.53 100.027 88.095 99.5274 88.575C99.0374 89.055 98.4574 89.43 97.7874 89.7C97.1174 89.96 96.3874 90.09 95.5974 90.09ZM95.5974 89.1C96.2274 89.1 96.8074 88.995 97.3374 88.785C97.8774 88.565 98.3424 88.26 98.7324 87.87C99.1324 87.47 99.4424 87.01 99.6624 86.49C99.8824 85.96 99.9924 85.38 99.9924 84.75C99.9924 84.12 99.8824 83.545 99.6624 83.025C99.4424 82.495 99.1324 82.035 98.7324 81.645C98.3424 81.245 97.8774 80.94 97.3374 80.73C96.8074 80.51 96.2274 80.4 95.5974 80.4C94.9674 80.4 94.3824 80.51 93.8424 80.73C93.3024 80.94 92.8324 81.245 92.4324 81.645C92.0424 82.035 91.7324 82.495 91.5024 83.025C91.2824 83.545 91.1724 84.12 91.1724 84.75C91.1724 85.37 91.2824 85.945 91.5024 86.475C91.7324 87.005 92.0424 87.47 92.4324 87.87C92.8324 88.26 93.3024 88.565 93.8424 88.785C94.3824 88.995 94.9674 89.1 95.5974 89.1Z" fill="black"/>
</svg>
