<svg width="189" height="40" viewBox="0 0 189 40" fill="none" xmlns="http://www.w3.org/2000/svg">
<rect width="189" height="40" fill="#151515"/>
<path d="M22.392 26H24.174V14.966H28.494V13.4H18.072V14.966H22.392V26ZM32.2545 24.434V20.366H38.5725V18.836H32.2545V14.966H39.3465V13.4H30.4545V26H39.5985V24.434H32.2545ZM51.927 26H53.817L48.093 13.4H46.311L40.605 26H42.459L43.845 22.85H50.541L51.927 26ZM44.475 21.41L47.193 15.236L49.911 21.41H44.475ZM69.1066 26L69.0886 13.4H67.6126L62.4286 22.256L57.1726 13.4H55.6966V26H57.4246V16.874L61.9786 24.47H62.8066L67.3606 16.82L67.3786 26H69.1066ZM82.636 13.4H77.722V26H79.522V22.184H82.636C85.912 22.184 87.892 20.528 87.892 17.792C87.892 15.056 85.912 13.4 82.636 13.4ZM82.582 20.618H79.522V14.966H82.582C84.886 14.966 86.092 15.992 86.092 17.792C86.092 19.592 84.886 20.618 82.582 20.618ZM91.7823 18.062V16.46H90.1263V26H91.8543V21.248C91.8543 19.16 93.0063 18.026 94.8603 18.026C94.9863 18.026 95.1123 18.026 95.2563 18.044V16.37C93.5823 16.37 92.3943 16.946 91.7823 18.062ZM101.384 26.108C104.246 26.108 106.334 24.074 106.334 21.23C106.334 18.386 104.246 16.37 101.384 16.37C98.5222 16.37 96.4162 18.386 96.4162 21.23C96.4162 24.074 98.5222 26.108 101.384 26.108ZM101.384 24.596C99.5482 24.596 98.1622 23.264 98.1622 21.23C98.1622 19.196 99.5482 17.882 101.384 17.882C103.22 17.882 104.588 19.196 104.588 21.23C104.588 23.264 103.22 24.596 101.384 24.596ZM109.678 14.624C110.362 14.624 110.848 14.12 110.848 13.472C110.848 12.86 110.344 12.374 109.678 12.374C109.012 12.374 108.508 12.878 108.508 13.508C108.508 14.138 109.012 14.624 109.678 14.624ZM107.5 29.6C109.462 29.6 110.542 28.376 110.542 26.432V16.46H108.814V26.468C108.814 27.566 108.31 28.142 107.392 28.142C106.834 28.142 106.33 27.98 105.988 27.692L105.43 29.024C105.916 29.42 106.708 29.6 107.5 29.6ZM122.461 21.284C122.461 18.35 120.499 16.37 117.745 16.37C114.991 16.37 112.957 18.404 112.957 21.23C112.957 24.074 115.009 26.108 118.087 26.108C119.671 26.108 120.985 25.568 121.849 24.56L120.895 23.444C120.193 24.218 119.257 24.596 118.141 24.596C116.251 24.596 114.901 23.48 114.685 21.806H122.425C122.443 21.644 122.461 21.428 122.461 21.284ZM117.745 17.828C119.419 17.828 120.625 18.962 120.805 20.564H114.685C114.865 18.944 116.089 17.828 117.745 17.828ZM129.019 26.108C130.729 26.108 132.151 25.388 132.907 24.056L131.593 23.228C130.981 24.164 130.045 24.596 129.001 24.596C127.129 24.596 125.725 23.3 125.725 21.23C125.725 19.196 127.129 17.882 129.001 17.882C130.045 17.882 130.981 18.314 131.593 19.25L132.907 18.404C132.151 17.072 130.729 16.37 129.019 16.37C126.085 16.37 123.979 18.386 123.979 21.23C123.979 24.074 126.085 26.108 129.019 26.108ZM140.091 24.2C139.731 24.488 139.245 24.65 138.741 24.65C137.787 24.65 137.247 24.074 137.247 23.048V17.882H139.983V16.46H137.247V14.372H135.519V16.46H133.899V17.882H135.519V23.12C135.519 25.046 136.617 26.108 138.543 26.108C139.317 26.108 140.109 25.892 140.631 25.442L140.091 24.2Z" fill="white"/>
<path d="M171.203 20.3853C171.416 20.1725 171.416 19.8275 171.203 19.6147L167.736 16.147C167.523 15.9342 167.178 15.9342 166.965 16.147C166.752 16.3598 166.752 16.7048 166.965 16.9176L170.048 20L166.965 23.0824C166.752 23.2952 166.752 23.6402 166.965 23.853C167.178 24.0658 167.523 24.0658 167.736 23.853L171.203 20.3853ZM149 20.5449L170.818 20.5449L170.818 19.4551L149 19.4551L149 20.5449Z" fill="white"/>
</svg>
