<svg width="288" height="77" viewBox="0 0 288 77" fill="none" xmlns="http://www.w3.org/2000/svg">
<path d="M16.312 69V29.502H1.232V28.4H32.552V29.502H17.472V69H16.312ZM34.3994 47.83H57.0774V48.932H34.3994V47.83ZM34.6894 67.898H60.5574V69H33.5294V28.4H59.6874V29.502H34.6894V67.898ZM58.1196 69L76.9696 28.4H78.1296L96.9796 69H95.6456L77.2596 29.328H77.8396L59.4536 69H58.1196ZM64.3256 56.762L64.9056 55.66H90.1356L90.7156 56.762H64.3256ZM98.2832 69V28.4H99.2692L118.583 62.156H118.061L137.317 28.4H138.303V69H137.143V30.082H137.607L118.641 63.258H117.945L98.9212 30.082H99.4432V69H98.2832ZM154.314 69V28.4H168.06C171.386 28.4 174.228 28.9413 176.586 30.024C178.984 31.068 180.82 32.576 182.096 34.548C183.372 36.52 184.01 38.9173 184.01 41.74C184.01 44.524 183.372 46.9213 182.096 48.932C180.82 50.904 178.984 52.4313 176.586 53.514C174.228 54.558 171.386 55.08 168.06 55.08H154.952L155.474 54.558V69H154.314ZM155.474 54.442L154.952 53.978H168.176C172.932 53.978 176.567 52.9147 179.08 50.788C181.594 48.6227 182.85 45.6067 182.85 41.74C182.85 37.8347 181.594 34.8187 179.08 32.692C176.567 30.5653 172.932 29.502 168.176 29.502H154.952L155.474 29.038V54.442ZM178.735 69L197.585 28.4H198.745L217.595 69H216.261L197.875 29.328H198.455L180.069 69H178.735ZM184.941 56.762L185.521 55.66H210.751L211.331 56.762H184.941ZM235.036 69.174C232.02 69.174 229.236 68.6713 226.684 67.666C224.132 66.622 221.909 65.172 220.014 63.316C218.119 61.46 216.65 59.2947 215.606 56.82C214.562 54.3453 214.04 51.6387 214.04 48.7C214.04 45.7613 214.562 43.0547 215.606 40.58C216.65 38.1053 218.119 35.94 220.014 34.084C221.909 32.228 224.132 30.7973 226.684 29.792C229.236 28.748 232.02 28.226 235.036 28.226C237.781 28.226 240.353 28.6513 242.75 29.502C245.186 30.3527 247.274 31.648 249.014 33.388L248.318 34.2C246.462 32.4213 244.413 31.1647 242.17 30.43C239.966 29.6953 237.588 29.328 235.036 29.328C232.213 29.328 229.584 29.8307 227.148 30.836C224.751 31.8027 222.643 33.1753 220.826 34.954C219.047 36.694 217.655 38.7433 216.65 41.102C215.683 43.422 215.2 45.9547 215.2 48.7C215.2 51.4453 215.683 53.9973 216.65 56.356C217.655 58.676 219.047 60.7253 220.826 62.504C222.643 64.244 224.751 65.6167 227.148 66.622C229.584 67.5887 232.213 68.072 235.036 68.072C237.588 68.072 239.985 67.6853 242.228 66.912C244.509 66.1387 246.539 64.8627 248.318 63.084L249.014 63.954C247.274 65.694 245.186 67.0087 242.75 67.898C240.353 68.7487 237.781 69.174 235.036 69.174ZM247.912 63.954V49.106H249.014V63.954H247.912ZM257.158 47.83H279.836V48.932H257.158V47.83ZM257.448 67.898H283.316V69H256.288V28.4H282.446V29.502H257.448V67.898Z" fill="black"/>
<path d="M0.961 14.3492H131.783L111.81 1.11133" stroke="black" stroke-width="2.3361"/>
</svg>
