<svg width="290" height="78" viewBox="0 0 290 78" fill="none" xmlns="http://www.w3.org/2000/svg">
<path d="M7.714 69.3174V28.7174H23.084C27.376 28.7174 31.1267 29.6067 34.336 31.3854C37.5453 33.1254 40.0393 35.5227 41.818 38.5774C43.5967 41.632 44.486 45.112 44.486 49.0174C44.486 52.9227 43.5967 56.4027 41.818 59.4574C40.0393 62.512 37.5453 64.9287 34.336 66.7074C31.1267 68.4474 27.376 69.3174 23.084 69.3174H7.714ZM8.874 68.2154H22.968C27.1053 68.2154 30.7013 67.384 33.756 65.7214C36.8107 64.0587 39.1693 61.7967 40.832 58.9354C42.4947 56.0354 43.326 52.7294 43.326 49.0174C43.326 45.3054 42.4947 42.0187 40.832 39.1574C39.1693 36.2574 36.8107 33.976 33.756 32.3134C30.7013 30.6507 27.1053 29.8194 22.968 29.8194H8.874V68.2154ZM49.542 48.1474H72.22V49.2494H49.542V48.1474ZM49.832 68.2154H75.7V69.3174H48.672V28.7174H74.83V29.8194H49.832V68.2154ZM90.3722 69.4914C87.4335 69.4914 84.6495 68.95 82.0202 67.8674C79.4295 66.7847 77.4575 65.412 76.1042 63.7494L76.9162 62.9954C78.1922 64.5034 80.0288 65.7794 82.4262 66.8234C84.8622 67.8674 87.4915 68.3894 90.3142 68.3894C93.2528 68.3894 95.6502 67.9834 97.5062 67.1714C99.4008 66.3594 100.793 65.2767 101.682 63.9234C102.61 62.5314 103.074 61.004 103.074 59.3414C103.074 57.408 102.61 55.8614 101.682 54.7014C100.754 53.5027 99.5168 52.5747 97.9702 51.9174C96.4235 51.2214 94.7415 50.6607 92.9242 50.2354C91.1068 49.7714 89.2702 49.3074 87.4142 48.8434C85.5968 48.3794 83.9148 47.78 82.3682 47.0454C80.8215 46.272 79.5842 45.228 78.6562 43.9134C77.7282 42.5987 77.2642 40.878 77.2642 38.7514C77.2642 36.9727 77.7282 35.31 78.6562 33.7634C79.6228 32.2167 81.0922 30.96 83.0642 29.9934C85.0748 29.0267 87.6655 28.5434 90.8362 28.5434C93.0015 28.5434 95.1282 28.8914 97.2162 29.5874C99.3428 30.2447 101.141 31.134 102.61 32.2554L101.972 33.1834C100.348 31.9847 98.5502 31.0954 96.5782 30.5154C94.6062 29.9354 92.7115 29.6454 90.8942 29.6454C88.0715 29.6454 85.7322 30.0707 83.8762 30.9214C82.0202 31.7334 80.6475 32.8354 79.7582 34.2274C78.8688 35.5807 78.4242 37.108 78.4242 38.8094C78.4242 40.7814 78.8882 42.3667 79.8162 43.5654C80.7442 44.7254 81.9815 45.6534 83.5282 46.3494C85.0748 47.0067 86.7568 47.5674 88.5742 48.0314C90.4302 48.4567 92.2668 48.9207 94.0842 49.4234C95.9015 49.8874 97.5835 50.506 99.1302 51.2794C100.677 52.014 101.914 53.0194 102.842 54.2954C103.77 55.5714 104.234 57.2534 104.234 59.3414C104.234 61.12 103.751 62.7827 102.784 64.3294C101.817 65.876 100.309 67.1327 98.2602 68.0994C96.2108 69.0274 93.5815 69.4914 90.3722 69.4914ZM108.328 69.3174V28.7174H109.488V69.3174H108.328ZM134.668 69.4914C131.652 69.4914 128.868 68.9887 126.316 67.9834C123.764 66.9394 121.541 65.4894 119.646 63.6334C117.751 61.7774 116.282 59.612 115.238 57.1374C114.194 54.6627 113.672 51.956 113.672 49.0174C113.672 46.0787 114.194 43.372 115.238 40.8974C116.282 38.4227 117.751 36.2574 119.646 34.4014C121.541 32.5454 123.764 31.1147 126.316 30.1094C128.868 29.0654 131.652 28.5434 134.668 28.5434C137.413 28.5434 139.985 28.9687 142.382 29.8194C144.818 30.67 146.906 31.9654 148.646 33.7054L147.95 34.5174C146.094 32.7387 144.045 31.482 141.802 30.7474C139.598 30.0127 137.22 29.6454 134.668 29.6454C131.845 29.6454 129.216 30.148 126.78 31.1534C124.383 32.12 122.275 33.4927 120.458 35.2714C118.679 37.0114 117.287 39.0607 116.282 41.4194C115.315 43.7394 114.832 46.272 114.832 49.0174C114.832 51.7627 115.315 54.3147 116.282 56.6734C117.287 58.9934 118.679 61.0427 120.458 62.8214C122.275 64.5614 124.383 65.934 126.78 66.9394C129.216 67.906 131.845 68.3894 134.668 68.3894C137.22 68.3894 139.617 68.0027 141.86 67.2294C144.141 66.456 146.171 65.18 147.95 63.4014L148.646 64.2714C146.906 66.0114 144.818 67.326 142.382 68.2154C139.985 69.066 137.413 69.4914 134.668 69.4914ZM147.544 64.2714V49.4234H148.646V64.2714H147.544ZM155.92 69.3174V28.7174H156.906L187.298 67.9834H186.66V28.7174H187.82V69.3174H186.834L156.442 30.0514H157.08V69.3174H155.92ZM197.181 48.1474H219.859V49.2494H197.181V48.1474ZM197.471 68.2154H223.339V69.3174H196.311V28.7174H222.469V29.8194H197.471V68.2154ZM228.094 69.3174V28.7174H241.84C245.165 28.7174 248.007 29.2587 250.366 30.3414C252.763 31.3854 254.6 32.8934 255.876 34.8654C257.152 36.8374 257.79 39.2347 257.79 42.0574C257.79 44.8414 257.152 47.2387 255.876 49.2494C254.6 51.2214 252.763 52.7487 250.366 53.8314C248.007 54.8754 245.165 55.3974 241.84 55.3974H228.732L229.254 54.8754V69.3174H228.094ZM256.92 69.3174L246.306 54.5854H247.756L258.37 69.3174H256.92ZM229.254 54.7594L228.732 54.2954H241.956C246.712 54.2954 250.346 53.232 252.86 51.1054C255.373 48.94 256.63 45.924 256.63 42.0574C256.63 38.152 255.373 35.136 252.86 33.0094C250.346 30.8827 246.712 29.8194 241.956 29.8194H228.732L229.254 29.3554V54.7594ZM272.569 69.4914C269.631 69.4914 266.847 68.95 264.217 67.8674C261.627 66.7847 259.655 65.412 258.301 63.7494L259.113 62.9954C260.389 64.5034 262.226 65.7794 264.623 66.8234C267.059 67.8674 269.689 68.3894 272.511 68.3894C275.45 68.3894 277.847 67.9834 279.703 67.1714C281.598 66.3594 282.99 65.2767 283.879 63.9234C284.807 62.5314 285.271 61.004 285.271 59.3414C285.271 57.408 284.807 55.8614 283.879 54.7014C282.951 53.5027 281.714 52.5747 280.167 51.9174C278.621 51.2214 276.939 50.6607 275.121 50.2354C273.304 49.7714 271.467 49.3074 269.611 48.8434C267.794 48.3794 266.112 47.78 264.565 47.0454C263.019 46.272 261.781 45.228 260.853 43.9134C259.925 42.5987 259.461 40.878 259.461 38.7514C259.461 36.9727 259.925 35.31 260.853 33.7634C261.82 32.2167 263.289 30.96 265.261 29.9934C267.272 29.0267 269.863 28.5434 273.033 28.5434C275.199 28.5434 277.325 28.8914 279.413 29.5874C281.54 30.2447 283.338 31.134 284.807 32.2554L284.169 33.1834C282.545 31.9847 280.747 31.0954 278.775 30.5154C276.803 29.9354 274.909 29.6454 273.091 29.6454C270.269 29.6454 267.929 30.0707 266.073 30.9214C264.217 31.7334 262.845 32.8354 261.955 34.2274C261.066 35.5807 260.621 37.108 260.621 38.8094C260.621 40.7814 261.085 42.3667 262.013 43.5654C262.941 44.7254 264.179 45.6534 265.725 46.3494C267.272 47.0067 268.954 47.5674 270.771 48.0314C272.627 48.4567 274.464 48.9207 276.281 49.4234C278.099 49.8874 279.781 50.506 281.327 51.2794C282.874 52.014 284.111 53.0194 285.039 54.2954C285.967 55.5714 286.431 57.2534 286.431 59.3414C286.431 61.12 285.948 62.7827 284.981 64.3294C284.015 65.876 282.507 67.1327 280.457 68.0994C278.408 69.0274 275.779 69.4914 272.569 69.4914Z" fill="black"/>
<path d="M289.673 14.5553H158.852L178.824 1.31738" stroke="black" stroke-width="2.3361"/>
</svg>
