<?xml version="1.0" encoding="UTF-8"?><svg id="Layer_2" xmlns="http://www.w3.org/2000/svg" viewBox="0 0 416.4 755.4"><defs><style>.cls-1{fill:none;stroke:#231f20;}</style></defs><g id="Layer_1-2"><g><path class="cls-1" d="M234.5,85.5L164.9,.5h-26.8V40.56C133.29,15.54,111.22,.5,78.3,.5H17.7V140.5H50.1v-38.6h28.2c32.92,0,54.99-15.04,59.8-39.93v78.53h32V55.5l69.8,85h26.6V.5h-32V85.5Zm-158-10h-26.4V26.9h26.4c19.8,0,29.8,9,29.8,24.4s-10,24.2-29.8,24.2Z"/><path class="cls-1" d="M369.3,.5V77.7c0,26.6-11.4,37.6-31.2,37.6s-31.2-11-31.2-37.6V.5h-32.4V78.9c0,41.2,23.6,64,63.4,64s63.4-22.8,63.4-64V.5h-32Z"/></g><path class="cls-1" d="M293.9,204.5v23.08c-13.65-14.66-34.52-23.08-59.8-23.08h-63.6v140h63.6c45.8,0,77.2-27.6,77.2-70,0-17.28-5.22-32.1-14.5-43.6h41.9v113.6h32.4v-113.6h44.8v-26.4h-122Zm-61.4,113.4h-29.6v-86.8h29.6c27.8,0,46,16.6,46,43.4s-18.2,43.4-46,43.4Z"/><path class="cls-1" d="M371.1,530.5c0-11.6,8.6-19.2,19.4-19.2s19.4,7.6,19.4,19.2-8.6,19.6-19.4,19.6-19.4-8.2-19.4-19.6Z"/><path class="cls-1" d="M350.9,726.1l32.2-30.4c19.6-18.2,23.4-30.6,23.4-44.2,0-25.4-20.8-41.4-52-41.4-20.87,0-37.9,7-49.27,18.39-8.65-11.65-24.5-18.39-44.73-18.39-23.2,0-41.65,8.65-52.86,22.36-10.77-14.56-26.88-22.36-45.74-22.36-24.32,0-44.23,13.11-53.81,37.11-2.23-22.9-22.38-37.11-51.79-37.11-25.2,0-44.8,10.2-55.6,26l23.6,15.2c6.8-9.4,17-14,29-14,14.8,0,22.4,6.4,22.4,17.4,0,6.8-2.2,14-14.6,25.8l-54,51v21H112.9v-24.94c10.65,17.76,28.21,27.35,49,27.35,34.6,0,60-26.2,60-72.4,0-16.27-3.16-30.05-8.76-41.09l15.36,9.89c6.8-9.4,17-14,29-14,14.8,0,22.4,6.4,22.4,17.4,0,6.8-2.2,14-14.6,25.8l-54,51v21h199.8v-26.4h-60.2Zm-298.2,0l32.2-30.4c8.24-7.66,13.69-14.28,17.23-20.41-.14,2.35-.23,4.74-.23,7.21,0,17.53,3.69,32.17,10.14,43.6H52.7Zm109.2,1.4c-16,0-27.2-13.2-27.2-45s11.2-45,27.2-45,27.4,13.2,27.4,45-11.2,45-27.4,45Zm95-1.4l32.2-30.4c19.6-18.2,23.4-30.6,23.4-44.2,0-2.42-.19-4.76-.56-7l10.56,6.8c6.8-9.4,17-14,29-14,14.8,0,22.4,6.4,22.4,17.4,0,6.8-2.2,14-14.6,25.8l-48.28,45.6h-54.12Z"/></g></svg>