<?xml version="1.0" encoding="UTF-8"?><svg id="Layer_2" xmlns="http://www.w3.org/2000/svg" viewBox="0 0 639.06 550.6"><defs><style>.cls-1{fill:none;stroke:#231f20;}</style></defs><g id="Layer_1-2"><g><rect class="cls-1" x="19.17" y=".5" width="32.4" height="140"/><polygon class="cls-1" points="330.17 82.1 395.16 82.1 395.16 56.9 330.17 56.9 330.17 26.5 403.77 26.5 403.77 .5 304.57 .5 297.97 .5 189.17 .5 182.57 .5 157.17 .5 157.17 85.5 87.57 .5 60.77 .5 60.77 140.5 92.77 140.5 92.77 55.5 162.57 140.5 189.17 140.5 189.17 26.9 227.37 26.9 227.37 140.5 259.77 140.5 259.77 26.9 297.97 26.9 297.97 140.5 406.36 140.5 406.36 114.5 330.17 114.5 330.17 82.1"/><path class="cls-1" d="M500.76,95.5c18.2-7.8,28.8-23.2,28.8-44.2,0-31.4-23.4-50.8-60.8-50.8h-60.6V140.5h32.4v-39h29.8l27,39h34.8l-31.4-45Zm-33.8-19.8h-26.4V26.9h26.4c19.8,0,29.8,9,29.8,24.4s-10,24.4-29.8,24.4Z"/></g><g><path class="cls-1" d="M63.17,204.5L.77,344.5H33.97l12.4-30H111.37l12.4,30h34l-62.6-140H63.17Zm-6.4,85.4l22.2-53.6,22.2,53.6H56.77Z"/><path class="cls-1" d="M562.36,318.5v-32.4h65v-25.2h-65v-30.4h73.6v-26h-125.6l-43.2,100-42.6-100H251.77v6.58c-10.91-5.86-23.84-8.98-38.2-8.98-43.6,0-76,30.2-76,72.4s32.4,72.4,75.8,72.4c24.4,0,44.6-8.8,57.8-25l-20.8-19.2c-9.4,11-21.2,16.6-35.2,16.6-26.2,0-44.8-18.4-44.8-44.8s18.6-44.8,44.8-44.8c14,0,25.8,5.6,35.2,16.4l16.47-15.2h29.73v113.6h32.4v-113.6h38.2v113.6h32.4v-116.82l50.4,116.82h32l48.2-111.35v111.35h108.4v-26h-76.2Z"/></g><g><path class="cls-1" d="M375.56,408.5h-122v13.78c-10.53-8.87-25.79-13.78-44.6-13.78h-60.6v118.98l-53.2-118.98H63.17L.77,548.5H33.97l12.4-30H111.37l12.4,30h57v-39h29.8l27,39h34.8l-31.4-45c18.2-7.8,28.8-23.2,28.8-44.2,0-9.24-2.04-17.43-5.85-24.4h34.45v113.6h32.4v-113.6h44.8v-26.4ZM56.77,493.9l22.2-53.6,22.2,53.6H56.77Zm150.4-10.2h-26.4v-48.8h26.4c19.8,0,29.8,9,29.8,24.4s-10,24.4-29.8,24.4Z"/><path class="cls-1" d="M371.97,511.3c-10.8,0-19.4,7.6-19.4,19.2s8.6,19.6,19.4,19.6,19.4-8.2,19.4-19.6-8.6-19.2-19.4-19.2Z"/></g></g></svg>