<svg width="158" height="50" viewBox="0 0 158 50" fill="none" xmlns="http://www.w3.org/2000/svg">
<path d="M67.54 35.18C70.63 35.18 73.39 34.13 75.25 32.09L73.84 30.68C72.13 32.45 70.03 33.2 67.63 33.2C62.56 33.2 58.75 29.48 58.75 24.5C58.75 19.52 62.56 15.8 67.63 15.8C70.03 15.8 72.13 16.55 73.84 18.29L75.25 16.88C73.39 14.84 70.63 13.82 67.57 13.82C61.24 13.82 56.56 18.35 56.56 24.5C56.56 30.65 61.24 35.18 67.54 35.18ZM79.9825 35H93.9625V33.08H82.2025V14H79.9825V35ZM106.418 35.18C112.718 35.18 117.428 30.65 117.428 24.5C117.428 18.35 112.718 13.82 106.418 13.82C100.058 13.82 95.3784 18.38 95.3784 24.5C95.3784 30.62 100.058 35.18 106.418 35.18ZM106.418 33.2C101.348 33.2 97.5684 29.51 97.5684 24.5C97.5684 19.49 101.348 15.8 106.418 15.8C111.458 15.8 115.208 19.49 115.208 24.5C115.208 29.51 111.458 33.2 106.418 33.2ZM128.194 35.18C133.564 35.18 136.024 32.54 136.024 29.45C136.024 21.8 123.094 25.28 123.094 19.52C123.094 17.42 124.804 15.71 128.644 15.71C130.504 15.71 132.604 16.28 134.404 17.45L135.154 15.68C133.474 14.51 131.014 13.82 128.644 13.82C123.304 13.82 120.904 16.49 120.904 19.58C120.904 27.35 133.834 23.81 133.834 29.57C133.834 31.64 132.124 33.29 128.194 33.29C125.434 33.29 122.764 32.21 121.264 30.74L120.394 32.45C121.954 34.07 125.044 35.18 128.194 35.18ZM143.081 33.08V25.28H153.941V23.39H143.081V15.92H155.261V14H140.861V35H155.711V33.08H143.081Z" fill="white"/>
<path d="M55 38H157.511V39.5H55V38Z" fill="white"/>
<path d="M12.1528 12.1523L37.8472 37.8468" stroke="white" stroke-width="2" stroke-miterlimit="10" stroke-linecap="round" stroke-linejoin="round"/>
<path d="M37.8472 12.1523L12.1528 37.8468" stroke="white" stroke-width="2" stroke-miterlimit="10" stroke-linecap="round" stroke-linejoin="round"/>
</svg>
