<svg width="28" height="22" viewBox="0 0 28 22" fill="none" xmlns="http://www.w3.org/2000/svg">
<g clip-path="url(#clip0_1267_86)">
<path d="M4.96987 1.03648H2.89014V17.9387H11.5226C11.5226 17.9387 13.2812 17.9387 13.9235 19.919C13.9235 19.919 14.2446 18.3951 16.1638 18.0934H25.1173V1.33817H16.1638C16.1638 1.33817 15.0474 1.18345 14.2446 2.55265C14.2446 2.55265 13.4417 1.18345 12.0043 1.33817H10.0851V6.51327L8.40297 4.912L6.56791 6.66025V0.580078H10.0851V1.33817" stroke="black" stroke-width="1.2" stroke-linecap="round" stroke-linejoin="round"/>
<path d="M14 2.90039V18.3716" stroke="black" stroke-width="1.2" stroke-linecap="round" stroke-linejoin="round"/>
<path d="M0.573242 2.42871V19.8957H11.6066C11.6066 19.8957 11.6066 21.1875 12.2488 21.3499C12.8911 21.5124 15.4449 21.3499 15.4449 21.3499C15.4449 21.3499 16.2477 20.8626 16.2477 20.0581H27.434V2.59116" stroke="black" stroke-width="1.2" stroke-linecap="round" stroke-linejoin="round"/>
</g>
<defs>
<clipPath id="clip0_1267_86">
<rect width="28" height="22" fill="white"/>
</clipPath>
</defs>
</svg>
