<svg width="29" height="93" viewBox="0 0 29 93" fill="none" xmlns="http://www.w3.org/2000/svg">
<path d="M20.2929 92.7071C20.6834 93.0976 21.3166 93.0976 21.7071 92.7071L28.0711 86.3431C28.4616 85.9526 28.4616 85.3195 28.0711 84.9289C27.6805 84.5384 27.0474 84.5384 26.6569 84.9289L21 90.5858L15.3431 84.9289C14.9526 84.5384 14.3195 84.5384 13.9289 84.9289C13.5384 85.3195 13.5384 85.9526 13.9289 86.3431L20.2929 92.7071ZM20 -4.37114e-08L20 92L22 92L22 4.37114e-08L20 -4.37114e-08Z" fill="black"/>
<path d="M13.09 60.395C13.09 61.175 12.965 61.925 12.715 62.645C12.455 63.355 12.125 63.905 11.725 64.295L10.87 63.86C11.23 63.49 11.535 62.995 11.785 62.375C12.025 61.745 12.145 61.085 12.145 60.395C12.145 59.735 12.065 59.2 11.905 58.79C11.735 58.37 11.51 58.065 11.23 57.875C10.95 57.675 10.64 57.575 10.3 57.575C9.89 57.575 9.56 57.695 9.31 57.935C9.06 58.165 8.865 58.47 8.725 58.85C8.575 59.23 8.445 59.65 8.335 60.11C8.225 60.57 8.11 61.03 7.99 61.49C7.86 61.95 7.69 62.375 7.48 62.765C7.27 63.145 6.995 63.455 6.655 63.695C6.305 63.925 5.85 64.04 5.29 64.04C4.77 64.04 4.295 63.905 3.865 63.635C3.425 63.355 3.075 62.93 2.815 62.36C2.545 61.79 2.41 61.06 2.41 60.17C2.41 59.58 2.495 58.995 2.665 58.415C2.825 57.835 3.05 57.335 3.34 56.915L4.225 57.29C3.925 57.74 3.705 58.22 3.565 58.73C3.425 59.23 3.355 59.715 3.355 60.185C3.355 60.815 3.44 61.335 3.61 61.745C3.78 62.155 4.01 62.46 4.3 62.66C4.58 62.85 4.9 62.945 5.26 62.945C5.67 62.945 6 62.83 6.25 62.6C6.5 62.36 6.695 62.05 6.835 61.67C6.975 61.28 7.1 60.855 7.21 60.395C7.32 59.935 7.44 59.48 7.57 59.03C7.7 58.57 7.87 58.15 8.08 57.77C8.28 57.38 8.55 57.07 8.89 56.84C9.23 56.6 9.675 56.48 10.225 56.48C10.735 56.48 11.21 56.62 11.65 56.9C12.08 57.18 12.43 57.61 12.7 58.19C12.96 58.76 13.09 59.495 13.09 60.395ZM13.09 48.7515C13.09 49.5415 12.96 50.2715 12.7 50.9415C12.43 51.6115 12.055 52.1915 11.575 52.6815C11.095 53.1715 10.53 53.5565 9.88 53.8365C9.23 54.1065 8.52 54.2415 7.75 54.2415C6.98 54.2415 6.27 54.1065 5.62 53.8365C4.97 53.5565 4.405 53.1715 3.925 52.6815C3.445 52.1815 3.075 51.5965 2.815 50.9265C2.545 50.2565 2.41 49.5265 2.41 48.7365C2.41 47.9765 2.54 47.2615 2.8 46.5915C3.05 45.9215 3.43 45.3565 3.94 44.8965L4.645 45.6015C4.205 46.0315 3.89 46.5065 3.7 47.0265C3.5 47.5465 3.4 48.1065 3.4 48.7065C3.4 49.3365 3.51 49.9215 3.73 50.4615C3.94 51.0015 4.245 51.4715 4.645 51.8715C5.035 52.2715 5.495 52.5865 6.025 52.8165C6.545 53.0365 7.12 53.1465 7.75 53.1465C8.38 53.1465 8.96 53.0365 9.49 52.8165C10.01 52.5865 10.47 52.2715 10.87 51.8715C11.26 51.4715 11.565 51.0015 11.785 50.4615C11.995 49.9215 12.1 49.3365 12.1 48.7065C12.1 48.1065 12 47.5465 11.8 47.0265C11.6 46.5065 11.28 46.0315 10.84 45.6015L11.545 44.8965C12.055 45.3565 12.44 45.9215 12.7 46.5915C12.96 47.2615 13.09 47.9815 13.09 48.7515ZM13 41.7802L2.5 41.7802L2.5 37.8502C2.5 36.9602 2.645 36.1952 2.935 35.5552C3.215 34.9152 3.625 34.4252 4.165 34.0852C4.695 33.7352 5.34 33.5602 6.1 33.5602C6.84 33.5602 7.48 33.7352 8.02 34.0852C8.55 34.4252 8.96 34.9152 9.25 35.5552C9.53 36.1952 9.67 36.9602 9.67 37.8502L9.67 41.1652L9.16 40.6702L13 40.6702L13 41.7802ZM13 34.6102L9.19 37.3102L9.19 36.1102L13 33.3952L13 34.6102ZM9.25 40.6702L8.725 41.1652L8.725 37.8802C8.725 36.8302 8.495 36.0352 8.035 35.4952C7.575 34.9452 6.93 34.6702 6.1 34.6702C5.26 34.6702 4.61 34.9452 4.15 35.4952C3.69 36.0352 3.46 36.8302 3.46 37.8802L3.46 41.1652L2.935 40.6702L9.25 40.6702ZM13.09 25.6004C13.09 26.3904 12.96 27.1254 12.7 27.8054C12.43 28.4754 12.055 29.0604 11.575 29.5604C11.085 30.0504 10.52 30.4354 9.88 30.7154C9.23 30.9854 8.52 31.1204 7.75 31.1204C6.98 31.1204 6.275 30.9854 5.635 30.7154C4.985 30.4354 4.42 30.0504 3.94 29.5604C3.45 29.0604 3.075 28.4754 2.815 27.8054C2.545 27.1354 2.41 26.4004 2.41 25.6004C2.41 24.8104 2.545 24.0804 2.815 23.4104C3.075 22.7404 3.445 22.1604 3.925 21.6704C4.405 21.1704 4.97 20.7854 5.62 20.5154C6.27 20.2354 6.98 20.0954 7.75 20.0954C8.52 20.0954 9.23 20.2354 9.88 20.5154C10.53 20.7854 11.095 21.1704 11.575 21.6704C12.055 22.1604 12.43 22.7404 12.7 23.4104C12.96 24.0804 13.09 24.8104 13.09 25.6004ZM12.1 25.6004C12.1 24.9704 11.995 24.3904 11.785 23.8604C11.565 23.3204 11.26 22.8554 10.87 22.4654C10.47 22.0654 10.01 21.7554 9.49 21.5354C8.96 21.3154 8.38 21.2054 7.75 21.2054C7.12 21.2054 6.545 21.3154 6.025 21.5354C5.495 21.7554 5.035 22.0654 4.645 22.4654C4.245 22.8554 3.94 23.3204 3.73 23.8604C3.51 24.3904 3.4 24.9704 3.4 25.6004C3.4 26.2304 3.51 26.8154 3.73 27.3554C3.94 27.8954 4.245 28.3654 4.645 28.7654C5.035 29.1554 5.495 29.4654 6.025 29.6954C6.545 29.9154 7.12 30.0254 7.75 30.0254C8.37 30.0254 8.945 29.9154 9.475 29.6954C10.005 29.4654 10.47 29.1554 10.87 28.7654C11.26 28.3654 11.565 27.8954 11.785 27.3554C11.995 26.8154 12.1 26.2304 12.1 25.6004ZM13 16.8574L2.5 16.8574L2.5 15.7474L12.04 15.7474L12.04 9.86738L13 9.86738L13 16.8574ZM13 7.27437L2.5 7.27437L2.5 6.16437L12.04 6.16437L12.04 0.284374L13 0.284374L13 7.27437Z" fill="black"/>
</svg>
