<svg width="107" height="53" viewBox="0 0 107 53" fill="none" xmlns="http://www.w3.org/2000/svg">
<circle cx="80.632" cy="26.3679" r="25.6036" stroke="black" stroke-width="1.52857"/>
<line x1="73.2567" y1="34.6168" x2="90.0564" y2="17.817" stroke="black" stroke-width="1.52857"/>
<line x1="72.3832" y1="17.8023" x2="89.183" y2="34.6021" stroke="black" stroke-width="1.52857"/>
<path d="M4.79207 31.0917C4.18064 31.0917 3.61507 30.9924 3.09536 30.7936C2.58329 30.5873 2.13618 30.3007 1.75404 29.9338C1.37954 29.5593 1.08529 29.1237 0.871286 28.6269C0.657286 28.1301 0.550286 27.5836 0.550286 26.9875C0.550286 26.3914 0.657286 25.8449 0.871286 25.3481C1.08529 24.8513 1.38336 24.4195 1.7655 24.0526C2.14764 23.6781 2.59475 23.3915 3.10682 23.1928C3.62654 22.9865 4.19211 22.8833 4.80354 22.8833C5.42261 22.8833 5.992 22.9903 6.51171 23.2043C7.03907 23.4106 7.48618 23.7202 7.85304 24.1329L7.10786 24.8551C6.80214 24.5341 6.45821 24.2972 6.07607 24.1444C5.69393 23.9839 5.28504 23.9036 4.84939 23.9036C4.39846 23.9036 3.97811 23.98 3.58832 24.1329C3.20618 24.2857 2.87371 24.4997 2.59093 24.7749C2.30814 25.05 2.0865 25.3787 1.926 25.7608C1.77314 26.1353 1.69671 26.5442 1.69671 26.9875C1.69671 27.4308 1.77314 27.8435 1.926 28.2256C2.0865 28.6001 2.30814 28.925 2.59093 29.2001C2.87371 29.4752 3.20618 29.6892 3.58832 29.8421C3.97811 29.995 4.39846 30.0714 4.84939 30.0714C5.28504 30.0714 5.69393 29.995 6.07607 29.8421C6.45821 29.6816 6.80214 29.437 7.10786 29.1084L7.85304 29.8306C7.48618 30.2434 7.03907 30.5567 6.51171 30.7707C5.992 30.9847 5.41879 31.0917 4.79207 31.0917ZM10.0617 31L10.0617 22.975H11.2081L11.2081 30.0026H15.5531V31H10.0617ZM20.919 31.0917C20.3076 31.0917 19.7382 30.9885 19.2108 30.7822C18.6911 30.5758 18.2402 30.2892 17.858 29.9224C17.4759 29.5479 17.1778 29.1122 16.9638 28.6154C16.7498 28.1186 16.6428 27.576 16.6428 26.9875C16.6428 26.399 16.7498 25.8564 16.9638 25.3596C17.1778 24.8628 17.4759 24.431 17.858 24.0641C18.2402 23.6896 18.6911 23.3992 19.2108 23.1928C19.7305 22.9865 20.2999 22.8833 20.919 22.8833C21.5304 22.8833 22.0922 22.9865 22.6043 23.1928C23.124 23.3915 23.5749 23.6781 23.957 24.0526C24.3468 24.4195 24.6449 24.8513 24.8513 25.3481C25.0653 25.8449 25.1723 26.3914 25.1723 26.9875C25.1723 27.5836 25.0653 28.1301 24.8513 28.6269C24.6449 29.1237 24.3468 29.5593 23.957 29.9338C23.5749 30.3007 23.124 30.5873 22.6043 30.7936C22.0922 30.9924 21.5304 31.0917 20.919 31.0917ZM20.919 30.0714C21.3623 30.0714 21.7712 29.995 22.1457 29.8421C22.5278 29.6892 22.8565 29.4752 23.1316 29.2001C23.4144 28.9173 23.6322 28.5887 23.7851 28.2142C23.9456 27.8397 24.0258 27.4308 24.0258 26.9875C24.0258 26.5442 23.9456 26.1353 23.7851 25.7608C23.6322 25.3863 23.4144 25.0615 23.1316 24.7864C22.8565 24.5036 22.5278 24.2857 22.1457 24.1329C21.7712 23.98 21.3623 23.9036 20.919 23.9036C20.4681 23.9036 20.0515 23.98 19.6694 24.1329C19.2949 24.2857 18.9663 24.5036 18.6835 24.7864C18.4007 25.0615 18.179 25.3863 18.0185 25.7608C17.8657 26.1353 17.7893 26.5442 17.7893 26.9875C17.7893 27.4308 17.8657 27.8397 18.0185 28.2142C18.179 28.5887 18.4007 28.9173 18.6835 29.2001C18.9663 29.4752 19.2949 29.6892 19.6694 29.8421C20.0515 29.995 20.4681 30.0714 20.919 30.0714ZM29.8364 31.0917C29.225 31.0917 28.6403 31 28.0824 30.8166C27.5245 30.6255 27.085 30.3809 26.764 30.0829L27.1882 29.1886C27.4939 29.4561 27.8837 29.6778 28.3575 29.8536C28.8314 30.0294 29.3244 30.1172 29.8364 30.1172C30.3026 30.1172 30.681 30.0637 30.9714 29.9567C31.2618 29.8497 31.4758 29.7045 31.6134 29.5211C31.751 29.33 31.8198 29.116 31.8198 28.8791C31.8198 28.604 31.728 28.3823 31.5446 28.2142C31.3688 28.046 31.1357 27.9123 30.8453 27.8129C30.5625 27.7059 30.2491 27.6142 29.9052 27.5378C29.5613 27.4614 29.2135 27.3735 28.862 27.2741C28.518 27.1671 28.2009 27.0334 27.9104 26.8729C27.6276 26.7124 27.3984 26.4984 27.2226 26.2309C27.0468 25.9557 26.9589 25.6041 26.9589 25.1761C26.9589 24.7634 27.0659 24.3851 27.2799 24.0412C27.5015 23.6896 27.8378 23.4106 28.2888 23.2043C28.7473 22.9903 29.3282 22.8833 30.0313 22.8833C30.4975 22.8833 30.9599 22.9444 31.4185 23.0667C31.8771 23.189 32.2745 23.3648 32.6108 23.5941L32.2325 24.5112C31.8885 24.2819 31.5255 24.1176 31.1434 24.0182C30.7612 23.9112 30.3905 23.8577 30.0313 23.8577C29.5804 23.8577 29.2097 23.9151 28.9193 24.0297C28.6289 24.1444 28.4149 24.2972 28.2773 24.4883C28.1474 24.6794 28.0824 24.8934 28.0824 25.1303C28.0824 25.4131 28.1703 25.6385 28.3461 25.8067C28.5295 25.9748 28.7626 26.1086 29.0454 26.2079C29.3358 26.3073 29.653 26.399 29.9969 26.4831C30.3409 26.5595 30.6848 26.6474 31.0287 26.7467C31.3803 26.8461 31.6975 26.976 31.9803 27.1365C32.2707 27.297 32.5038 27.511 32.6796 27.7785C32.8554 28.046 32.9433 28.39 32.9433 28.8103C32.9433 29.2154 32.8324 29.5937 32.6108 29.9453C32.3891 30.2892 32.0452 30.5682 31.579 30.7822C31.1204 30.9885 30.5396 31.0917 29.8364 31.0917ZM36.2346 26.4372H40.3617V27.4117H36.2346V26.4372ZM36.3378 30.0026H41.0152V31H35.1913V22.975H40.8547V23.9724H36.3378V30.0026Z" fill="black"/>
</svg>
