<svg width="43" height="54" viewBox="0 0 43 54" fill="none" xmlns="http://www.w3.org/2000/svg">
<g clip-path="url(#clip0_1033_342)">
<path d="M38.7742 8.34954C38.7742 8.34954 34.5626 -0.204524 21.9064 0.0145393H21.7085C8.72724 -0.402388 4.22584 8.28594 4.22584 8.28594C-5.09141 21.1612 3.91138 33.8316 3.91138 33.8316L21.5036 53.579L39.0922 33.8987C39.0922 33.8987 48.095 21.2319 38.7778 8.35308L38.7742 8.34954Z" fill="#EA6868"/>
<path d="M7.19031 15.8691C7.19031 15.8691 18.0021 10.7141 23.1961 10.3184L28.1427 22.6742L21.122 30.9386L11.1193 28.0378L7.19384 15.8691H7.19031Z" fill="white" stroke="#EA6868" stroke-width="1.38838" stroke-miterlimit="10"/>
<path d="M12.4973 21.3667L15.8186 20.0947" stroke="#EA6868" stroke-width="1.38838" stroke-miterlimit="10"/>
<path d="M18.6488 19.0385L22.1997 17.7383" stroke="#EA6868" stroke-width="1.38838" stroke-miterlimit="10"/>
<path d="M15.5359 24.4869C15.5359 24.4869 19.2635 27.1333 21.864 22.4199L15.5359 24.4869Z" fill="white"/>
<path d="M15.5359 24.4869C15.5359 24.4869 19.2635 27.1333 21.864 22.4199" stroke="#EA6868" stroke-width="1.38838" stroke-miterlimit="10"/>
<path d="M17.3908 16.1963C17.3908 16.1963 29.2202 18.0795 33.7216 20.6977L30.789 33.679L20.3199 36.5056L13.7233 28.4462L17.3873 16.1963H17.3908Z" fill="white" stroke="#EA6868" stroke-width="1.38838" stroke-miterlimit="10"/>
<path d="M18.6451 23.7324L22.1007 24.5698" stroke="#EA6868" stroke-width="1.38838" stroke-miterlimit="10"/>
<path d="M25.0333 25.3047L28.6973 26.2445" stroke="#EA6868" stroke-width="1.38838" stroke-miterlimit="10"/>
<path d="M19.3801 28.0254C19.3801 28.0254 20.9489 32.3183 25.7648 29.9086L19.3801 28.0254Z" fill="white"/>
<path d="M19.3801 28.0254C19.3801 28.0254 20.9489 32.3183 25.7648 29.9086" stroke="#EA6868" stroke-width="1.38838" stroke-miterlimit="10"/>
</g>
<defs>
<clipPath id="clip0_1033_342">
<rect width="43" height="53.5751" fill="white"/>
</clipPath>
</defs>
</svg>
