<svg width="165" height="18" viewBox="0 0 165 18" fill="none" xmlns="http://www.w3.org/2000/svg">
<path d="M106.934 15V2.4H112.658C114.026 2.4 115.232 2.664 116.276 3.192C117.32 3.708 118.136 4.434 118.724 5.37C119.312 6.306 119.606 7.416 119.606 8.7C119.606 9.972 119.312 11.082 118.724 12.03C118.136 12.966 117.32 13.698 116.276 14.226C115.232 14.742 114.026 15 112.658 15H106.934ZM109.85 12.606H112.514C113.354 12.606 114.08 12.45 114.692 12.138C115.316 11.814 115.796 11.358 116.132 10.77C116.48 10.182 116.654 9.492 116.654 8.7C116.654 7.896 116.48 7.206 116.132 6.63C115.796 6.042 115.316 5.592 114.692 5.28C114.08 4.956 113.354 4.794 112.514 4.794H109.85V12.606ZM122.079 15V4.776H118.047V2.4H129.027V4.776H124.995V15H122.079ZM128.436 15V2.4H133.89C135.018 2.4 135.99 2.586 136.806 2.958C137.622 3.318 138.252 3.84 138.696 4.524C139.14 5.208 139.362 6.024 139.362 6.972C139.362 7.908 139.14 8.718 138.696 9.402C138.252 10.086 137.622 10.614 136.806 10.986C135.99 11.346 135.018 11.526 133.89 11.526H130.056L131.352 10.212V15H128.436ZM131.352 10.536L130.056 9.15H133.728C134.628 9.15 135.3 8.958 135.744 8.574C136.188 8.19 136.41 7.656 136.41 6.972C136.41 6.276 136.188 5.736 135.744 5.352C135.3 4.968 134.628 4.776 133.728 4.776H130.056L131.352 3.39V10.536ZM139.284 15V2.4H141.696L149.13 11.472H147.96V2.4H150.84V15H148.446L140.994 5.928H142.164V15H139.284ZM157.259 15.216C155.471 15.216 154.073 14.718 153.065 13.722C152.057 12.726 151.553 11.304 151.553 9.456V2.4H154.469V9.348C154.469 10.548 154.715 11.412 155.207 11.94C155.699 12.468 156.389 12.732 157.277 12.732C158.165 12.732 158.855 12.468 159.347 11.94C159.839 11.412 160.085 10.548 160.085 9.348V2.4H162.965V9.456C162.965 11.304 162.461 12.726 161.453 13.722C160.445 14.718 159.047 15.216 157.259 15.216Z" fill="white"/>
<path d="M92.3125 2.18066V16.3547" stroke="white" stroke-width="1.45374"/>
<path d="M2.63108 15V2.4H7.14908C8.20508 2.4 9.11108 2.568 9.86708 2.904C10.6231 3.24 11.2051 3.726 11.6131 4.362C12.0211 4.986 12.2251 5.748 12.2251 6.648C12.2251 7.524 12.0211 8.28 11.6131 8.916C11.2051 9.552 10.6231 10.038 9.86708 10.374C9.11108 10.71 8.20508 10.878 7.14908 10.878H3.13508L3.54908 10.446V15H2.63108ZM3.54908 10.5L3.13508 10.05H7.14908C8.50508 10.05 9.53108 9.756 10.2271 9.168C10.9351 8.568 11.2891 7.728 11.2891 6.648C11.2891 5.556 10.9351 4.716 10.2271 4.128C9.53108 3.528 8.50508 3.228 7.14908 3.228H3.13508L3.54908 2.778V10.5ZM13.9725 8.196H20.7945V9.006H13.9725V8.196ZM14.0805 14.172H21.8565V15H13.1625V2.4H21.5865V3.228H14.0805V14.172ZM23.0435 15V2.4H27.5615C28.6175 2.4 29.5235 2.568 30.2795 2.904C31.0355 3.24 31.6175 3.726 32.0255 4.362C32.4335 4.986 32.6375 5.748 32.6375 6.648C32.6375 7.524 32.4335 8.28 32.0255 8.916C31.6175 9.54 31.0355 10.026 30.2795 10.374C29.5235 10.71 28.6175 10.878 27.5615 10.878H23.5475L23.9615 10.446V15H23.0435ZM31.7915 15L28.5155 10.428H29.5595L32.8355 15H31.7915ZM23.9615 10.5L23.5475 10.068H27.5615C28.9175 10.068 29.9435 9.768 30.6395 9.168C31.3475 8.568 31.7015 7.728 31.7015 6.648C31.7015 5.556 31.3475 4.716 30.6395 4.128C29.9435 3.528 28.9175 3.228 27.5615 3.228H23.5475L23.9615 2.778V10.5ZM37.1506 15.09C36.2146 15.09 35.3266 14.934 34.4866 14.622C33.6586 14.298 33.0166 13.884 32.5606 13.38L32.9746 12.696C33.4066 13.14 33.9946 13.518 34.7386 13.83C35.4946 14.13 36.2926 14.28 37.1326 14.28C37.9726 14.28 38.6566 14.172 39.1846 13.956C39.7246 13.728 40.1206 13.428 40.3726 13.056C40.6366 12.684 40.7686 12.27 40.7686 11.814C40.7686 11.274 40.6246 10.842 40.3366 10.518C40.0486 10.194 39.6706 9.936 39.2026 9.744C38.7346 9.552 38.2246 9.39 37.6726 9.258C37.1206 9.126 36.5626 8.988 35.9986 8.844C35.4346 8.688 34.9186 8.49 34.4506 8.25C33.9826 8.01 33.6046 7.686 33.3166 7.278C33.0406 6.858 32.9026 6.318 32.9026 5.658C32.9026 5.058 33.0586 4.506 33.3706 4.002C33.6826 3.498 34.1686 3.09 34.8286 2.778C35.4886 2.466 36.3346 2.31 37.3666 2.31C38.0626 2.31 38.7466 2.412 39.4186 2.616C40.1026 2.82 40.6846 3.096 41.1646 3.444L40.8226 4.182C40.2946 3.822 39.7246 3.558 39.1126 3.39C38.5126 3.21 37.9306 3.12 37.3666 3.12C36.5626 3.12 35.8966 3.234 35.3686 3.462C34.8406 3.69 34.4506 3.996 34.1986 4.38C33.9466 4.752 33.8206 5.172 33.8206 5.64C33.8206 6.18 33.9586 6.612 34.2346 6.936C34.5226 7.26 34.9006 7.518 35.3686 7.71C35.8366 7.902 36.3526 8.064 36.9166 8.196C37.4806 8.328 38.0386 8.472 38.5906 8.628C39.1426 8.772 39.6526 8.964 40.1206 9.204C40.5886 9.444 40.9666 9.768 41.2546 10.176C41.5426 10.584 41.6866 11.112 41.6866 11.76C41.6866 12.348 41.5246 12.9 41.2006 13.416C40.8766 13.92 40.3786 14.328 39.7066 14.64C39.0466 14.94 38.1946 15.09 37.1506 15.09ZM47.9933 15.09C47.0573 15.09 46.1873 14.934 45.3833 14.622C44.5913 14.298 43.8953 13.848 43.2953 13.272C42.7073 12.684 42.2513 12.006 41.9273 11.238C41.6033 10.458 41.4413 9.612 41.4413 8.7C41.4413 7.788 41.6033 6.948 41.9273 6.18C42.2513 5.4 42.7073 4.722 43.2953 4.146C43.8953 3.558 44.5913 3.108 45.3833 2.796C46.1873 2.472 47.0573 2.31 47.9933 2.31C48.9293 2.31 49.7933 2.472 50.5853 2.796C51.3893 3.108 52.0853 3.552 52.6733 4.128C53.2613 4.704 53.7173 5.382 54.0413 6.162C54.3773 6.93 54.5453 7.776 54.5453 8.7C54.5453 9.624 54.3773 10.476 54.0413 11.256C53.7173 12.024 53.2613 12.696 52.6733 13.272C52.0853 13.848 51.3893 14.298 50.5853 14.622C49.7933 14.934 48.9293 15.09 47.9933 15.09ZM47.9933 14.244C48.7973 14.244 49.5413 14.106 50.2253 13.83C50.9093 13.554 51.5033 13.164 52.0073 12.66C52.5113 12.156 52.9013 11.568 53.1773 10.896C53.4653 10.224 53.6093 9.492 53.6093 8.7C53.6093 7.896 53.4653 7.164 53.1773 6.504C52.9013 5.832 52.5113 5.244 52.0073 4.74C51.5033 4.236 50.9093 3.846 50.2253 3.57C49.5413 3.294 48.7973 3.156 47.9933 3.156C47.1893 3.156 46.4453 3.294 45.7613 3.57C45.0773 3.846 44.4773 4.236 43.9613 4.74C43.4573 5.244 43.0613 5.832 42.7733 6.504C42.4973 7.164 42.3593 7.896 42.3593 8.7C42.3593 9.492 42.4973 10.224 42.7733 10.896C43.0613 11.568 43.4573 12.156 43.9613 12.66C44.4773 13.164 45.0773 13.554 45.7613 13.83C46.4453 14.106 47.1893 14.244 47.9933 14.244ZM55.5694 15V2.4H56.3434L65.3254 13.866H64.9114V2.4H65.8294V15H65.0734L56.0734 3.534H56.4874V15H55.5694ZM65.9635 15L71.7595 2.4H72.6775L78.4735 15H77.4835L72.0115 2.976H72.4075L66.9535 15H65.9635ZM68.0875 11.454L68.3935 10.68H75.9355L76.2415 11.454H68.0875Z" fill="white"/>
</svg>
