<svg width="338" height="41" viewBox="0 0 338 41" fill="none" xmlns="http://www.w3.org/2000/svg">
<path d="M130.198 15V2.4H135.184C136.516 2.4 137.686 2.67 138.694 3.21C139.702 3.75 140.482 4.494 141.034 5.442C141.598 6.39 141.88 7.476 141.88 8.7C141.88 9.924 141.598 11.01 141.034 11.958C140.482 12.906 139.702 13.65 138.694 14.19C137.686 14.73 136.516 15 135.184 15H130.198ZM131.116 14.172H135.112C136.3 14.172 137.332 13.938 138.208 13.47C139.084 13.002 139.762 12.36 140.242 11.544C140.722 10.716 140.962 9.768 140.962 8.7C140.962 7.632 140.722 6.69 140.242 5.874C139.762 5.046 139.084 4.398 138.208 3.93C137.332 3.462 136.3 3.228 135.112 3.228H131.116V14.172ZM143.719 8.196H150.541V9.006H143.719V8.196ZM143.827 14.172H151.603V15H142.909V2.4H151.333V3.228H143.827V14.172ZM156.102 15.09C155.166 15.09 154.278 14.934 153.438 14.622C152.61 14.298 151.968 13.884 151.512 13.38L151.926 12.696C152.358 13.14 152.946 13.518 153.69 13.83C154.446 14.13 155.244 14.28 156.084 14.28C156.924 14.28 157.608 14.172 158.136 13.956C158.676 13.728 159.072 13.428 159.324 13.056C159.588 12.684 159.72 12.27 159.72 11.814C159.72 11.274 159.576 10.842 159.288 10.518C159 10.194 158.622 9.936 158.154 9.744C157.686 9.552 157.176 9.39 156.624 9.258C156.072 9.126 155.514 8.988 154.95 8.844C154.386 8.688 153.87 8.49 153.402 8.25C152.934 8.01 152.556 7.686 152.268 7.278C151.992 6.858 151.854 6.318 151.854 5.658C151.854 5.058 152.01 4.506 152.322 4.002C152.634 3.498 153.12 3.09 153.78 2.778C154.44 2.466 155.286 2.31 156.318 2.31C157.014 2.31 157.698 2.412 158.37 2.616C159.054 2.82 159.636 3.096 160.116 3.444L159.774 4.182C159.246 3.822 158.676 3.558 158.064 3.39C157.464 3.21 156.882 3.12 156.318 3.12C155.514 3.12 154.848 3.234 154.32 3.462C153.792 3.69 153.402 3.996 153.15 4.38C152.898 4.752 152.772 5.172 152.772 5.64C152.772 6.18 152.91 6.612 153.186 6.936C153.474 7.26 153.852 7.518 154.32 7.71C154.788 7.902 155.304 8.064 155.868 8.196C156.432 8.328 156.99 8.472 157.542 8.628C158.094 8.772 158.604 8.964 159.072 9.204C159.54 9.444 159.918 9.768 160.206 10.176C160.494 10.584 160.638 11.112 160.638 11.76C160.638 12.348 160.476 12.9 160.152 13.416C159.828 13.92 159.33 14.328 158.658 14.64C157.998 14.94 157.146 15.09 156.102 15.09ZM161.599 15V2.4H162.517V15H161.599ZM170.13 15.09C169.182 15.09 168.306 14.934 167.502 14.622C166.698 14.298 165.996 13.848 165.396 13.272C164.808 12.696 164.352 12.024 164.028 11.256C163.704 10.476 163.542 9.624 163.542 8.7C163.542 7.776 163.704 6.93 164.028 6.162C164.352 5.382 164.814 4.704 165.414 4.128C166.014 3.552 166.71 3.108 167.502 2.796C168.306 2.472 169.188 2.31 170.148 2.31C171.06 2.31 171.906 2.454 172.686 2.742C173.466 3.03 174.132 3.462 174.684 4.038L174.108 4.65C173.556 4.11 172.95 3.726 172.29 3.498C171.642 3.27 170.934 3.156 170.166 3.156C169.35 3.156 168.594 3.294 167.898 3.57C167.202 3.846 166.596 4.236 166.08 4.74C165.564 5.244 165.162 5.832 164.874 6.504C164.598 7.176 164.46 7.908 164.46 8.7C164.46 9.492 164.598 10.224 164.874 10.896C165.162 11.568 165.564 12.156 166.08 12.66C166.596 13.164 167.202 13.554 167.898 13.83C168.594 14.106 169.35 14.244 170.166 14.244C170.91 14.244 171.612 14.13 172.272 13.902C172.944 13.674 173.556 13.296 174.108 12.768L174.63 13.47C174.066 14.01 173.388 14.418 172.596 14.694C171.816 14.958 170.994 15.09 170.13 15.09ZM173.748 13.38V8.754H174.63V13.47L173.748 13.38ZM176.51 15V2.4H177.284L186.266 13.866H185.852V2.4H186.77V15H186.014L177.014 3.534H177.428V15H176.51ZM189.367 15L195.163 2.4H196.081L201.877 15H200.887L195.415 2.976H195.811L190.357 15H189.367ZM191.491 11.454L191.797 10.68H199.339L199.645 11.454H191.491ZM202.004 15V2.4H202.778L211.76 13.866H211.346V2.4H212.264V15H211.508L202.508 3.534H202.922V15H202.004ZM214.504 15V2.4H219.49C220.822 2.4 221.992 2.67 223 3.21C224.008 3.75 224.788 4.494 225.34 5.442C225.904 6.39 226.186 7.476 226.186 8.7C226.186 9.924 225.904 11.01 225.34 11.958C224.788 12.906 224.008 13.65 223 14.19C221.992 14.73 220.822 15 219.49 15H214.504ZM215.422 14.172H219.418C220.606 14.172 221.638 13.938 222.514 13.47C223.39 13.002 224.068 12.36 224.548 11.544C225.028 10.716 225.268 9.768 225.268 8.7C225.268 7.632 225.028 6.69 224.548 5.874C224.068 5.046 223.39 4.398 222.514 3.93C221.638 3.462 220.606 3.228 219.418 3.228H215.422V14.172ZM232.091 15V3.228H227.555V2.4H237.545V3.228H233.009V15H232.091ZM238.471 8.196H245.293V9.006H238.471V8.196ZM238.579 14.172H246.355V15H237.661V2.4H246.085V3.228H238.579V14.172ZM252.817 15.09C251.881 15.09 251.011 14.934 250.207 14.622C249.415 14.298 248.725 13.848 248.137 13.272C247.549 12.696 247.093 12.024 246.769 11.256C246.445 10.476 246.283 9.624 246.283 8.7C246.283 7.776 246.445 6.93 246.769 6.162C247.093 5.382 247.549 4.704 248.137 4.128C248.737 3.552 249.433 3.108 250.225 2.796C251.017 2.472 251.881 2.31 252.817 2.31C253.705 2.31 254.533 2.454 255.301 2.742C256.081 3.03 256.747 3.468 257.299 4.056L256.723 4.65C256.183 4.122 255.583 3.744 254.923 3.516C254.275 3.276 253.585 3.156 252.853 3.156C252.049 3.156 251.299 3.294 250.603 3.57C249.919 3.846 249.319 4.236 248.803 4.74C248.299 5.244 247.903 5.832 247.615 6.504C247.339 7.176 247.201 7.908 247.201 8.7C247.201 9.492 247.339 10.224 247.615 10.896C247.903 11.568 248.299 12.156 248.803 12.66C249.319 13.164 249.919 13.554 250.603 13.83C251.299 14.106 252.049 14.244 252.853 14.244C253.585 14.244 254.275 14.13 254.923 13.902C255.583 13.662 256.183 13.272 256.723 12.732L257.299 13.326C256.747 13.914 256.081 14.358 255.301 14.658C254.533 14.946 253.705 15.09 252.817 15.09ZM267.556 2.4H268.474V15H267.556V2.4ZM259.132 15H258.214V2.4H259.132V15ZM267.664 9.006H259.024V8.196H267.664V9.006ZM270.714 15V2.4H271.488L280.47 13.866H280.056V2.4H280.974V15H280.218L271.218 3.534H271.632V15H270.714ZM288.561 15.09C287.625 15.09 286.755 14.934 285.951 14.622C285.159 14.298 284.463 13.848 283.863 13.272C283.275 12.684 282.819 12.006 282.495 11.238C282.171 10.458 282.009 9.612 282.009 8.7C282.009 7.788 282.171 6.948 282.495 6.18C282.819 5.4 283.275 4.722 283.863 4.146C284.463 3.558 285.159 3.108 285.951 2.796C286.755 2.472 287.625 2.31 288.561 2.31C289.497 2.31 290.361 2.472 291.153 2.796C291.957 3.108 292.653 3.552 293.241 4.128C293.829 4.704 294.285 5.382 294.609 6.162C294.945 6.93 295.113 7.776 295.113 8.7C295.113 9.624 294.945 10.476 294.609 11.256C294.285 12.024 293.829 12.696 293.241 13.272C292.653 13.848 291.957 14.298 291.153 14.622C290.361 14.934 289.497 15.09 288.561 15.09ZM288.561 14.244C289.365 14.244 290.109 14.106 290.793 13.83C291.477 13.554 292.071 13.164 292.575 12.66C293.079 12.156 293.469 11.568 293.745 10.896C294.033 10.224 294.177 9.492 294.177 8.7C294.177 7.896 294.033 7.164 293.745 6.504C293.469 5.832 293.079 5.244 292.575 4.74C292.071 4.236 291.477 3.846 290.793 3.57C290.109 3.294 289.365 3.156 288.561 3.156C287.757 3.156 287.013 3.294 286.329 3.57C285.645 3.846 285.045 4.236 284.529 4.74C284.025 5.244 283.629 5.832 283.341 6.504C283.065 7.164 282.927 7.896 282.927 8.7C282.927 9.492 283.065 10.224 283.341 10.896C283.629 11.568 284.025 12.156 284.529 12.66C285.045 13.164 285.645 13.554 286.329 13.83C287.013 14.106 287.757 14.244 288.561 14.244ZM296.137 15V2.4H297.055V14.172H304.309V15H296.137ZM309.606 15.09C308.67 15.09 307.8 14.934 306.996 14.622C306.204 14.298 305.508 13.848 304.908 13.272C304.32 12.684 303.864 12.006 303.54 11.238C303.216 10.458 303.054 9.612 303.054 8.7C303.054 7.788 303.216 6.948 303.54 6.18C303.864 5.4 304.32 4.722 304.908 4.146C305.508 3.558 306.204 3.108 306.996 2.796C307.8 2.472 308.67 2.31 309.606 2.31C310.542 2.31 311.406 2.472 312.198 2.796C313.002 3.108 313.698 3.552 314.286 4.128C314.874 4.704 315.33 5.382 315.654 6.162C315.99 6.93 316.158 7.776 316.158 8.7C316.158 9.624 315.99 10.476 315.654 11.256C315.33 12.024 314.874 12.696 314.286 13.272C313.698 13.848 313.002 14.298 312.198 14.622C311.406 14.934 310.542 15.09 309.606 15.09ZM309.606 14.244C310.41 14.244 311.154 14.106 311.838 13.83C312.522 13.554 313.116 13.164 313.62 12.66C314.124 12.156 314.514 11.568 314.79 10.896C315.078 10.224 315.222 9.492 315.222 8.7C315.222 7.896 315.078 7.164 314.79 6.504C314.514 5.832 314.124 5.244 313.62 4.74C313.116 4.236 312.522 3.846 311.838 3.57C311.154 3.294 310.41 3.156 309.606 3.156C308.802 3.156 308.058 3.294 307.374 3.57C306.69 3.846 306.09 4.236 305.574 4.74C305.07 5.244 304.674 5.832 304.386 6.504C304.11 7.164 303.972 7.896 303.972 8.7C303.972 9.492 304.11 10.224 304.386 10.896C304.674 11.568 305.07 12.156 305.574 12.66C306.09 13.164 306.69 13.554 307.374 13.83C308.058 14.106 308.802 14.244 309.606 14.244ZM322.564 15.09C321.616 15.09 320.74 14.934 319.936 14.622C319.132 14.298 318.43 13.848 317.83 13.272C317.242 12.696 316.786 12.024 316.462 11.256C316.138 10.476 315.976 9.624 315.976 8.7C315.976 7.776 316.138 6.93 316.462 6.162C316.786 5.382 317.248 4.704 317.848 4.128C318.448 3.552 319.144 3.108 319.936 2.796C320.74 2.472 321.622 2.31 322.582 2.31C323.494 2.31 324.34 2.454 325.12 2.742C325.9 3.03 326.566 3.462 327.118 4.038L326.542 4.65C325.99 4.11 325.384 3.726 324.724 3.498C324.076 3.27 323.368 3.156 322.6 3.156C321.784 3.156 321.028 3.294 320.332 3.57C319.636 3.846 319.03 4.236 318.514 4.74C317.998 5.244 317.596 5.832 317.308 6.504C317.032 7.176 316.894 7.908 316.894 8.7C316.894 9.492 317.032 10.224 317.308 10.896C317.596 11.568 317.998 12.156 318.514 12.66C319.03 13.164 319.636 13.554 320.332 13.83C321.028 14.106 321.784 14.244 322.6 14.244C323.344 14.244 324.046 14.13 324.706 13.902C325.378 13.674 325.99 13.296 326.542 12.768L327.064 13.47C326.5 14.01 325.822 14.418 325.03 14.694C324.25 14.958 323.428 15.09 322.564 15.09ZM326.182 13.38V8.754H327.064V13.47L326.182 13.38ZM331.914 15V10.428L332.13 11.022L326.838 2.4H327.846L332.652 10.23H332.148L336.954 2.4H337.908L332.616 11.022L332.832 10.428V15H331.914Z" fill="black"/>
<path d="M130.285 38V25.4H134.803C135.859 25.4 136.765 25.568 137.521 25.904C138.277 26.24 138.859 26.726 139.267 27.362C139.675 27.986 139.879 28.748 139.879 29.648C139.879 30.524 139.675 31.28 139.267 31.916C138.859 32.552 138.277 33.038 137.521 33.374C136.765 33.71 135.859 33.878 134.803 33.878H130.789L131.203 33.446V38H130.285ZM131.203 33.5L130.789 33.05H134.803C136.159 33.05 137.185 32.756 137.881 32.168C138.589 31.568 138.943 30.728 138.943 29.648C138.943 28.556 138.589 27.716 137.881 27.128C137.185 26.528 136.159 26.228 134.803 26.228H130.789L131.203 25.778V33.5ZM140.816 38V25.4H141.59L150.572 36.866H150.158V25.4H151.076V38H150.32L141.32 26.534H141.734V38H140.816ZM158.248 38.09C156.688 38.09 155.458 37.634 154.558 36.722C153.658 35.81 153.208 34.454 153.208 32.654V25.4H154.126V32.618C154.126 34.19 154.486 35.354 155.206 36.11C155.926 36.866 156.946 37.244 158.266 37.244C159.574 37.244 160.588 36.866 161.308 36.11C162.028 35.354 162.388 34.19 162.388 32.618V25.4H163.306V32.654C163.306 34.454 162.856 35.81 161.956 36.722C161.056 37.634 159.82 38.09 158.248 38.09ZM165.43 38V25.4H170.416C171.748 25.4 172.918 25.67 173.926 26.21C174.934 26.75 175.714 27.494 176.266 28.442C176.83 29.39 177.112 30.476 177.112 31.7C177.112 32.924 176.83 34.01 176.266 34.958C175.714 35.906 174.934 36.65 173.926 37.19C172.918 37.73 171.748 38 170.416 38H165.43ZM166.348 37.172H170.344C171.532 37.172 172.564 36.938 173.44 36.47C174.316 36.002 174.994 35.36 175.474 34.544C175.954 33.716 176.194 32.768 176.194 31.7C176.194 30.632 175.954 29.69 175.474 28.874C174.994 28.046 174.316 27.398 173.44 26.93C172.564 26.462 171.532 26.228 170.344 26.228H166.348V37.172ZM180.377 38V26.228H175.841V25.4H185.831V26.228H181.295V38H180.377Z" fill="black"/>
<path d="M104 0V19.5" stroke="black" stroke-width="2"/>
<path d="M1.82166 15V2.4H7.27566C8.40366 2.4 9.37566 2.586 10.1917 2.958C11.0077 3.318 11.6377 3.84 12.0817 4.524C12.5257 5.208 12.7477 6.024 12.7477 6.972C12.7477 7.908 12.5257 8.718 12.0817 9.402C11.6377 10.086 11.0077 10.614 10.1917 10.986C9.37566 11.346 8.40366 11.526 7.27566 11.526H3.44166L4.73766 10.212V15H1.82166ZM4.73766 10.536L3.44166 9.15H7.11366C8.01366 9.15 8.68566 8.958 9.12966 8.574C9.57366 8.19 9.79566 7.656 9.79566 6.972C9.79566 6.276 9.57366 5.736 9.12966 5.352C8.68566 4.968 8.01366 4.776 7.11366 4.776H3.44166L4.73766 3.39V10.536ZM15.3515 7.476H21.4175V9.744H15.3515V7.476ZM15.5675 12.66H22.4255V15H12.6695V2.4H22.1915V4.74H15.5675V12.66ZM22.5856 15V2.4H28.0396C29.1676 2.4 30.1396 2.586 30.9556 2.958C31.7716 3.318 32.4016 3.84 32.8456 4.524C33.2896 5.208 33.5116 6.024 33.5116 6.972C33.5116 7.908 33.2896 8.718 32.8456 9.402C32.4016 10.074 31.7716 10.59 30.9556 10.95C30.1396 11.31 29.1676 11.49 28.0396 11.49H24.2056L25.5016 10.212V15H22.5856ZM30.5956 15L27.4456 10.428H30.5596L33.7456 15H30.5956ZM25.5016 10.536L24.2056 9.168H27.8776C28.7776 9.168 29.4496 8.976 29.8936 8.592C30.3376 8.196 30.5596 7.656 30.5596 6.972C30.5596 6.276 30.3376 5.736 29.8936 5.352C29.4496 4.968 28.7776 4.776 27.8776 4.776H24.2056L25.5016 3.39V10.536ZM37.802 15.216C36.794 15.216 35.828 15.084 34.904 14.82C33.98 14.544 33.236 14.19 32.672 13.758L33.662 11.562C34.202 11.946 34.838 12.264 35.57 12.516C36.314 12.756 37.064 12.876 37.82 12.876C38.396 12.876 38.858 12.822 39.206 12.714C39.566 12.594 39.83 12.432 39.998 12.228C40.166 12.024 40.25 11.79 40.25 11.526C40.25 11.19 40.118 10.926 39.854 10.734C39.59 10.53 39.242 10.368 38.81 10.248C38.378 10.116 37.898 9.996 37.37 9.888C36.854 9.768 36.332 9.624 35.804 9.456C35.288 9.288 34.814 9.072 34.382 8.808C33.95 8.544 33.596 8.196 33.32 7.764C33.056 7.332 32.924 6.78 32.924 6.108C32.924 5.388 33.116 4.734 33.5 4.146C33.896 3.546 34.484 3.072 35.264 2.724C36.056 2.364 37.046 2.184 38.234 2.184C39.026 2.184 39.806 2.28 40.574 2.472C41.342 2.652 42.02 2.928 42.608 3.3L41.708 5.514C41.12 5.178 40.532 4.932 39.944 4.776C39.356 4.608 38.78 4.524 38.216 4.524C37.652 4.524 37.19 4.59 36.83 4.722C36.47 4.854 36.212 5.028 36.056 5.244C35.9 5.448 35.822 5.688 35.822 5.964C35.822 6.288 35.954 6.552 36.218 6.756C36.482 6.948 36.83 7.104 37.262 7.224C37.694 7.344 38.168 7.464 38.684 7.584C39.212 7.704 39.734 7.842 40.25 7.998C40.778 8.154 41.258 8.364 41.69 8.628C42.122 8.892 42.47 9.24 42.734 9.672C43.01 10.104 43.148 10.65 43.148 11.31C43.148 12.018 42.95 12.666 42.554 13.254C42.158 13.842 41.564 14.316 40.772 14.676C39.992 15.036 39.002 15.216 37.802 15.216ZM49.1005 15.216C48.1045 15.216 47.1805 15.054 46.3285 14.73C45.4885 14.406 44.7565 13.95 44.1325 13.362C43.5205 12.774 43.0405 12.084 42.6925 11.292C42.3565 10.5 42.1885 9.636 42.1885 8.7C42.1885 7.764 42.3565 6.9 42.6925 6.108C43.0405 5.316 43.5265 4.626 44.1505 4.038C44.7745 3.45 45.5065 2.994 46.3465 2.67C47.1865 2.346 48.0985 2.184 49.0825 2.184C50.0785 2.184 50.9905 2.346 51.8185 2.67C52.6585 2.994 53.3845 3.45 53.9965 4.038C54.6205 4.626 55.1065 5.316 55.4545 6.108C55.8025 6.888 55.9765 7.752 55.9765 8.7C55.9765 9.636 55.8025 10.506 55.4545 11.31C55.1065 12.102 54.6205 12.792 53.9965 13.38C53.3845 13.956 52.6585 14.406 51.8185 14.73C50.9905 15.054 50.0845 15.216 49.1005 15.216ZM49.0825 12.732C49.6465 12.732 50.1625 12.636 50.6305 12.444C51.1105 12.252 51.5305 11.976 51.8905 11.616C52.2505 11.256 52.5265 10.83 52.7185 10.338C52.9225 9.846 53.0245 9.3 53.0245 8.7C53.0245 8.1 52.9225 7.554 52.7185 7.062C52.5265 6.57 52.2505 6.144 51.8905 5.784C51.5425 5.424 51.1285 5.148 50.6485 4.956C50.1685 4.764 49.6465 4.668 49.0825 4.668C48.5185 4.668 47.9965 4.764 47.5165 4.956C47.0485 5.148 46.6345 5.424 46.2745 5.784C45.9145 6.144 45.6325 6.57 45.4285 7.062C45.2365 7.554 45.1405 8.1 45.1405 8.7C45.1405 9.288 45.2365 9.834 45.4285 10.338C45.6325 10.83 45.9085 11.256 46.2565 11.616C46.6165 11.976 47.0365 12.252 47.5165 12.444C47.9965 12.636 48.5185 12.732 49.0825 12.732ZM56.008 15V2.4H58.42L65.854 11.472H64.684V2.4H67.564V15H65.17L57.718 5.928H58.888V15H56.008ZM66.7291 15L72.3451 2.4H75.2251L80.8591 15H77.7991L73.1911 3.876H74.3431L69.7171 15H66.7291ZM69.5371 12.3L70.3111 10.086H76.7911L77.5831 12.3H69.5371Z" fill="black"/>
</svg>
